<?xml version="1.0" encoding="UTF-8"?>
<!DOCTYPE svg  PUBLIC '-//W3C//DTD SVG 1.0//EN'  'http://www.w3.org/TR/2001/REC-SVG-20010904/DTD/svg10.dtd'>
<svg width="474px" height="330px" clip-rule="evenodd" fill-rule="evenodd" image-rendering="optimizeQuality" shape-rendering="geometricPrecision" text-rendering="geometricPrecision" version="1.0" viewBox="0 0 244.25 169.88" xml:space="preserve" xmlns="http://www.w3.org/2000/svg">
 <defs>
  <style type="text/css">
   <![CDATA[
    .fil49 {fill:#000102}
    .fil25 {fill:#0062A5}
    .fil39 {fill:#00D314}
    .fil13 {fill:#0162A5}
    .fil34 {fill:#030307}
    .fil20 {fill:#03040F}
    .fil26 {fill:#05061C}
    .fil46 {fill:#0564A6}
    .fil33 {fill:#0B0914}
    .fil29 {fill:#0B0D25}
    .fil27 {fill:#0B0D26}
    .fil48 {fill:#0E0E26}
    .fil54 {fill:#0F150E}
    .fil1 {fill:#162A2C}
    .fil12 {fill:#249300}
    .fil58 {fill:#29A201}
    .fil24 {fill:#29A500}
    .fil21 {fill:#2B2A3D}
    .fil45 {fill:#301604}
    .fil37 {fill:#607A89}
    .fil23 {fill:#700000}
    .fil43 {fill:#820000}
    .fil30 {fill:#910000}
    .fil40 {fill:#97A4A3}
    .fil41 {fill:#9BA8A6}
    .fil62 {fill:#A46655}
    .fil7 {fill:#AA0101}
    .fil3 {fill:#B7843C}
    .fil10 {fill:#BA8B44}
    .fil4 {fill:#BB8F4C}
    .fil53 {fill:#BE0202}
    .fil22 {fill:#BF0000}
    .fil9 {fill:#C1924B}
    .fil51 {fill:#C6B695}
    .fil61 {fill:#C7C9CA}
    .fil6 {fill:#C7CCBA}
    .fil47 {fill:#D1C19B}
    .fil0 {fill:#D7E5E9}
    .fil42 {fill:#DAB575}
    .fil8 {fill:#DDB300}
    .fil50 {fill:#DDDDE1}
    .fil59 {fill:#E1E1E1}
    .fil5 {fill:#E2E2BF}
    .fil14 {fill:#E2E2E3}
    .fil60 {fill:#E3CF9F}
    .fil15 {fill:#E3E3E3}
    .fil18 {fill:#E5A87E}
    .fil57 {fill:#E5E5E5}
    .fil56 {fill:#E9E9E4}
    .fil2 {fill:#EFB98C}
    .fil38 {fill:#F1F1F1}
    .fil17 {fill:#F4CB00}
    .fil55 {fill:#F8C597}
    .fil36 {fill:#F8CBA3}
    .fil35 {fill:#F8CCA4}
    .fil16 {fill:#F9D6AE}
    .fil11 {fill:#F9D7AF}
    .fil44 {fill:#FBE3AD}
    .fil31 {fill:#FCE8B2}
    .fil19 {fill:#FCFED6}
    .fil52 {fill:#FEFCFA}
    .fil28 {fill:#FEFEFE}
    .fil32 {fill:white}
   ]]>
  </style>
 </defs>
    <path class="fil0" d="m159.33 38.35l-0.89-0.11c-0.67 2.31 1.94 1.85 0.89 0.11z"/>
    <path class="fil0" d="m150.19 40.15c0.71-1.98-1.49-2.12-0.98-0.07l0.98 0.07z"/>
    <path class="fil1" d="m159.33 38.35c1.05 1.74-1.56 2.2-0.89-0.11l0.89 0.11zm0.98 1.54c0.18-0.81 0.08-1.87 0.04-2.02-3.36-1.6-3.17 4.19-0.04 2.02z"/>
    <path class="fil1" d="m150.19 40.15l-0.98-0.07c-0.51-2.05 1.69-1.91 0.98 0.07zm0.93 0.23c0.62-2.88-2.18-2.64-2.35-1.69-0.36 1.94 0.81 2.74 2.35 1.69z"/>
    <path class="fil2" d="m163.35 39.9c0.23 0.77 0.16 1.89-0.22 2.6 0.28 0.62-0.44 0.71 0.49 0.4 1.02-0.93 1.67-2.08 1.49-3.96-0.17-0.85-0.21-0.45-0.46-1.06l-0.49-1.35c0.04 0.8-0.03 1.2-0.25 1.82-0.02 0.06-0.05 0.12-0.07 0.18l-0.49 1.37z"/>
    <path class="fil2" d="m145.69 42.99c0.7-0.64 0.34 0.17 0.28-1.25-0.02-0.79-0.11-0.5 0.02-1.49-0.51-0.31-0.54-0.23-0.52-1.1v-2.35l0.07-1.06c-0.35 0.73-0.18 1.01-0.42 1.77-0.26 0.87-0.38 0.33-0.92 1.34-0.15 1.84 0.58 3.37 1.49 4.14z"/>
    <polygon class="fil3" points="13.76 102.09 39.85 102.21 39.85 101.62 13.86 101.72"/>
    <path class="fil3" d="m200.94 98.06l1.53 0.05 8.69-0.03c0.54-0.36 0.13 0.09 0.37-0.56l-10.8-0.05 0.21 0.59z"/>
    <path class="fil3" d="m207.19 58.55c-0.09-1.05 0.05-0.29-0.37-0.59l-5.39 0.01-2.21-0.01c0.06 1.03-0.38 0.35 0.45 0.69l7.52-0.1z"/>
    <polygon class="fil3" points="207.09 72.22 207.17 71.75 201.56 71.66 201.6 72.34"/>
    <path class="fil3" d="m207.03 70.14l0.18-0.47-4.49-0.06c-1.41-0.04-0.97 0.05-1.31 0.37 0.79 0.48 1.4 0.17 2.6 0.16 1-0.02 2.02 0 3.02 0z"/>
    <path class="fil3" d="m63.56 139.71h1.47c-0.25-0.51 0.32-0.19-0.49-0.46-0.48 0.05-0.95-0.09-0.98 0.46z"/>
    <path class="fil4" d="m50.68 14.6l1.14-1.06c-3.24 0.63-18.09-0.37-19.49 0.31 0.24 0.93 1.86 0.52 4.19 0.52 2.37 0 13.5-0.26 14.16 0.23z"/>
    <path class="fil4" d="m47.49 22.87l0.01-0.97c-2.09 0.34-10.52 0.05-13.82 0.09-1.08 0.02-1.13-0.22-1.35 0.54 1.25 0.65 12.48-0.26 15.16 0.34z"/>
    <path class="fil4" d="m230.32 151.42l5.37-0.07c1.1 0 1.12 0.23 1.43-0.48-1.26-0.74-5.71 0.01-7.59-0.39 0.33 0.43 0.46 0.59 0.79 0.94z"/>
    <path class="fil5" d="m202.42 69.39c-2.22-3.24-2.09-6.18-1.6-10.62l-1.75 0.1c-0.17 1.98-0.18 4.07 0.27 5.81 0.46 1.77 1.42 2.61 1.95 4.69l1.13 0.02z"/>
    <path class="fil5" d="m201.19 105.6l1.6 0.16c-0.4-1.1-0.73-6.26-0.32-7.65l-1.53-0.05c-0.24 1.16-0.12 6.49 0.25 7.54z"/>
    <path class="fil5" d="m199.22 57.96l2.21 0.01c-0.48-0.96-0.4-0.67-0.14-1.9 0.16-0.72 0.34-1.31 0.54-2h-1.9l-0.71 3.89z"/>
    <polygon class="fil5" points="202.22 97.25 202.32 94.73 201.95 94.73 200.66 94.74 200.72 97.22"/>
    <path class="fil6" d="m148.77 38.69c0.17-0.95 2.97-1.19 2.35 1.69-1.54 1.05-2.71 0.25-2.35-1.69zm-1.19-1.59c-1.2 1.19-1.24 3.61 0.11 4.71 3.5 2.88 8.07-3.81 4.67-4.72-1.08-0.28-3.53 0.42-4.08 0.34-0.02 0-0.09-0.02-0.11-0.02l-0.59-0.31z"/>
    <path class="fil6" d="m160.31 39.89c-3.13 2.17-3.32-3.62 0.04-2.02 0.04 0.15 0.14 1.21-0.04 2.02zm1.2-2.85c-0.57 0.31-1.03 0.04-2.43-0.1-1.65-0.16-1.66-0.25-2.72 0.68-0.54 2.84 1.44 4.81 4.21 4.52 2.82-0.29 3.26-4.33 1.31-5.33l-0.37 0.23z"/>
    <path class="fil7" d="m200.62 92.95l6.1-0.06c-0.46-0.83 0.03-0.08-0.45-0.48-0.56 0.54 0.22 0.24-1.01 0.38-0.54 0.07-2.48 0.03-3.19-0.27-0.23-4.59-0.9-10.01 0.54-14.12l3.7-0.06 0.25-0.31c-1.02-0.04-2.04-0.04-3.06-0.02-3.01 0.05-2.82 0.32-2.63-0.55-1.03 2.89-0.66 4.34-0.56 7.57 0.07 2.53 0.07 5.42 0.31 7.92z"/>
    <path class="fil7" d="m50.04 157.24c2.49-0.06 2.77-0.12 3.49-2.08l-2.06-0.19c-0.36 0.27-0.16 0.08-0.45 0.42-0.12 0.14-0.26 0.34-0.33 0.45-0.47 0.71-0.41 0.64-0.65 1.4z"/>
    <path class="fil8" d="m45.42 9.21l4.45 0.01c-0.88-1.41-2.09-2.24-2.13-4.56-0.04-2.51 1.23-3.25 2.08-4.63l-4.56-0.02c-0.69 1.4-2.01 2.38-1.97 4.66 0.04 2.57 1.42 3.13 2.13 4.54z"/>
    <path class="fil8" d="m91.44 9.2l2.3 0.01c-0.82-1.35-2.1-2.19-2.14-4.54-0.03-2.26 1.25-3.51 2.08-4.65l-2.35 0.01c-0.7 1.24-2.04 2.36-1.99 4.63 0.04 2.21 1.33 3.28 2.1 4.54z"/>
    <path class="fil8" d="m87.06 9.21h2.3c-0.73-1.4-2.15-2-2.19-4.56-0.05-2.14 1.3-3.58 2.12-4.63l-2.39-0.02c-0.83 1.51-2.11 2.42-1.95 4.92 0.14 2.29 1.5 3.02 2.11 4.29z"/>
    <path class="fil8" d="m104.89 114.2l3.37-0.05c0.3 0.34 0.12-0.16 0.14 0.43l0.73-0.68 0.34-1.32-3.82-0.03-0.76 1.65z"/>
    <path class="fil9" d="m191.56 153.48l-0.57-0.83c-4.45 0.37-24.97 0.06-31.15 0.06l-29.4-0.02c-1.09 0.01-1.1-0.22-1.42 0.47 1.38 0.91 55.22-0.23 62.54 0.32z"/>
    <path class="fil9" d="m66 137.63l2.9 0.2 49.75 0.14v-0.94c-2.18 0.48-9.46 0.14-12.18 0.14h-12c-8.1 0-16.21-0.04-24.31 0-0.82-0.09-1.68-0.11-2.52-0.09-1.05 0.02-1.19-0.09-1.64 0.55z"/>
    <path class="fil9" d="m139 141.73c0.45-0.46 0.2-0.39 2.19-0.37h5.37c0.3 0 1.05-0.04 1.29-0.02 0.35 0.02 0.38 0.01 0.7 0.12 0.83 0.29 0-0.37 0.57 0.35 4.16-0.46 33.02 0.33 34.36-0.29l0.61-0.41-0.52-0.49c-0.21 0.21 0.14 0.34-1.25 0.43l-25.8-0.03h-20.68c-1.26 0-5.76-0.59-6.31 0.41 0.84 0.64 7.8 0.3 9.47 0.3z"/>
    <path class="fil9" d="m26.24 138.14l0.98-1.02c-2.54 0.15-15.54-0.28-16.63 0.22 0.23 0.78 0.22 0.54 1.39 0.56 0.67 0 1.39-0.03 2.07-0.03h10.22c0.83-0.01 1.45-0.11 1.97 0.27z"/>
    <path class="fil9" d="m16.1 149.91l0.86-1.1c-1.38-0.04-5.53-0.39-6.4 0.27 0.35 0.69 1.53 0.41 2.47 0.41 0.51-0.01 1.04-0.02 1.54-0.02 1.51 0 1.23 0.06 1.53 0.44z"/>
    <path class="fil9" d="m232.1 153.49c1.42-0.13 3.95 0.38 5.03-0.33-0.35-0.76-1.47-0.45-2.48-0.45-1.15 0.01-2.19 0.1-3.29-0.18 0.24 0.38 0.04 0.12 0.34 0.52 0.12 0.15 0.27 0.29 0.4 0.44z"/>
    <path class="fil9" d="m14.33 152l0.85-1.13c-1.27-0.02-3.66-0.39-4.62 0.25 0.32 0.71 0.7 0.47 1.7 0.45 0.16-0.01 1.21-0.04 1.29-0.02 0.78 0.13 0.47-0.14 0.78 0.45z"/>
    <path class="fil10" d="m53.36 151.69l2.36-0.1 62.94 0.08-0.01-0.88-64.75 0.04c-0.38 0.46-0.32 0.42-0.54 0.86z"/>
    <path class="fil10" d="m190.26 151.44c-0.32-0.69-0.11-0.5-0.78-1.05-0.08 0.77-59.14-0.28-60.45 0.48 0.34 0.81 0.49 0.46 3.23 0.45 8.71-0.02 55.19-0.31 58 0.12z"/>
    <path class="fil10" d="m40.22 90.55l0.05-0.57c-2.77-0.2-25.47-0.34-26.42 0.16 0.27 0.63-0.31 0.49 2.75 0.47 6.36-0.05 18.85 0.31 23.62-0.06z"/>
    <path class="fil10" d="m220.36 140.02c0.49-0.41 0.7-0.35 1.76-0.34l12.78 0.02c0.88 0.01 1.47 0.1 2.21-0.32-1.42-1.01-13.69 0.13-17.49-0.5 0.08 0.18 0.15 0.44 0.3 0.65 0.3 0.44 0.13 0.19 0.44 0.49z"/>
    <path class="fil10" d="m49.6 15.94c0.08-0.08 0.15-0.12 0.37-0.41 0 0 0.31-0.48 0.34-0.52-1.78 0.27-12.3 0.14-15.59 0.11l-1.48 0.05c-0.88 0.18-0.19-0.02-0.57 0.21 0.49 0.77 1.73 0.41 3.85 0.41 2.87 0 11.34-0.19 13.08 0.15z"/>
    <path class="fil10" d="m24.49 140.21l0.92-1.06c-2.17 0.09-13.34-0.3-14.3 0.23 0.27 0.8 0.19 0.49 2.94 0.48l8.95-0.02c0.07 0 0.72 0.02 0.75 0.03 0.7 0.13 0.39-0.05 0.74 0.34z"/>
    <path class="fil10" d="m202.55 106.4l7.85 0.05c0.89-0.05 0.47 0.05 1.1-0.24-0.27-0.42 0.28-0.49-1.87-0.46l-6.84 0.01-1.6-0.16-0.08 0.8h1.44z"/>
    <path class="fil11" d="m100.55 66.61c1.39 0.67 2.72 1.17 4.3 1.68 1.12 0.36 3.84 1.36 4.79 1.54 0.46-1.39 1.51-3.19 1.6-4.95-1.23-0.99-3.27-4.6-4.69-4.76-0.63 1.4 0.82 2.72 1.25 4.08-3.86-1.12-5.98-5-7.93-0.3-0.86 2.06-0.33 1.81 0.68 2.71z"/>
    <path class="fil11" d="m171.48 106.58l5.77-0.03-0.4-1.77c-1.02-0.12-2.97-0.57-3.77-0.56-1.78 0.03-1.34 0.91-1.6 2.36z"/>
    <path class="fil12" d="m73.76 130.72l2.94 0.03c1.1-2.1 4.58-3.32 9.09-16.61l19 0.01 0.1 0.05 0.76-1.65-21.52-0.04-0.02 0.33c-1.31 4.99-4.09 10.28-7.15 14.15l-3.2 3.73z"/>
    <path class="fil12" d="m109.13 113.9c0.84 0.58 3.04 0.26 3.77-0.02l0.64-1.28-4.07-0.02-0.34 1.32z"/>
    <polygon class="fil12" points="200.66 94.74 201.95 94.73 202.08 93.02 200.6 92.95"/>
    <path class="fil13" d="m11.05 83.45c-0.65 0.65-1.08 0.62-2.01 1.42l-0.58 0.52-0.28 0.62 32.17-0.01c0.14-1.32 0.08-1.66-0.47-2.71-1.8 0.74-24.57-0.01-28.83 0.16z"/>
    <path class="fil13" d="m9.97 109.48c3.76 0.96 7.56 0.3 11.54 0.57l11.14-0.05 6.78-0.06 0.16-2.13-31.21-0.01c0.49 0.75 1.29 1.18 1.59 1.68z"/>
    <path class="fil13" d="m237 159.07c2.47 0.06 4.94-0.44 5.52-2.26l-7.54-0.09c0.48 0.92 1.19 1.61 2.02 2.35z"/>
    <path class="fil14" d="m195.88 160.66l-0.94-1.61c-12.15 0.39-24.93 0.03-37.15 0.03h-32.42c-1.44 0-3.18-0.33-4.29-0.28 1.59 2.19 4.25 1.83 7.61 1.83h28.85c12.61 0 25.82-0.38 38.34 0.03z"/>
    <path class="fil14" d="m8.46 85.39l0.58-0.52c0.93-0.8 1.36-0.77 2.01-1.42l-7.59-0.01c0.06 0.05 0.16 0.03 0.19 0.14l1.72 1.47c0.51 0 1.05-0.03 1.55-0.02 1.07 0.01 1.09 0 1.54 0.36z"/>
    <path class="fil15" d="m51.39 158.83l69.69-0.03c-0.22-0.33-0.03-0.11-0.38-0.45 0 0-0.4-0.36-0.41-0.37-0.37-0.31-0.62-0.5-0.98-0.75h-66.94c-0.29 0.46-0.72 1.1-0.98 1.6z"/>
    <path class="fil15" d="m37.63 168.3l-36.35-0.03c-0.94-0.29-0.4 0.44-0.81-0.56-0.57 0.52-0.46-0.84-0.46 1.02h2.81l-0.98 1.1 42.54 0.05c0.94-0.97 2.59-3.97 3.47-5.39 1.17-1.86 2.42-3.82 3.54-5.66l-2.44-0.03c-1.07 1.31-2.05 3.18-3.05 4.76-0.78 1.24-2.14 4.16-3.25 4.76l-5.02-0.02z"/>
    <path class="fil15" d="m202.92 163.2l-5.55-0.09 0.45 0.3c0.05 0.03 0.14 0.09 0.2 0.13 0.51 0.34 0.13 0.03 0.49 0.32 0.3 0.24 0.56 0.68 0.74 0.92h42.5c-0.13-0.83-0.07-0.46-0.55-1.04l-0.97-0.99c-0.33 0.48 0.23 0.52-2.26 0.48-11.44-0.21-23.64 0.25-35.05-0.03z"/>
    <path class="fil15" d="m215.97 91.64c0.27 0.66 0.36 0.58 0.6 1.27l-3.23 0.04c0.77 0.52 1.9 1 1.71 1.78-0.1 0.97-1.01 2.32-1.41 3.5-0.45 1.36-0.7 2.66-0.73 4.15-0.05 3.72 1.15 5.09 2.15 7.8 0.54 0.78 0.04 0.3-0.07 0.46l-1.49 1.2 3.53 0.02c-0.05-0.07-0.14-0.24-0.16-0.19-0.11 0.18-2.5-3.29-2.41-7.75 0.09-4.69 2.11-6.19 2.31-7.98-0.63-0.52-1.02-0.67-1.19-1.47l2.66-0.02c-0.92-4.04-2.17-9.63-0.18-13.75l0.12-1.08h-1.85c-0.55 1.96-0.86 4.05-0.84 6.18 0.02 1.05 0.1 2.16 0.25 3.12 0.22 1.35 0.7 2.13 0.23 2.72z"/>
    <path class="fil15" d="m216.24 135.13l0.06-0.05c3.02 0.79 23.75-0.42 26.43 0.4-3.17 3.34-4.5 10.9-2.51 16.44 0.63 1.77 1.91 3.55 2.3 4.89-0.58 1.82-3.05 2.32-5.52 2.26 0.4 0.76 0.91 1.25 1.62 1.71 1.93-0.85 3.86 0.47 5.49-2.26-0.15-1.04-1.87-3.65-2.47-5.47-2.96-9.06 2.43-15.49 2.57-16.08 0.14-0.65-0.14-0.9-0.43-1.32-0.02-0.01-0.45-0.54-0.46-0.56-0.05-0.05-0.1-0.1-0.15-0.14l-0.53-0.41c-0.54 0.72 0.92 0.64-0.85 0.58l-25.55 0.01z"/>
    <path class="fil15" d="m212.46 54.07c0.19 1.67-3.14 4-3.21 10.81-0.03 3.27 1.65 9.03 3.44 10.52 0.23 1.48 0.16 0.57-0.22 0.88-0.53 0.36-0.85 0.77-1.54 1.13-0.65 0.35-1.49 0.41-1.66 0.94-0.23-0.69 0.27-0.29 1.08-0.33 0.41-0.02 1.06 0.04 1.49 0.05 0.81-0.02 1.58-0.01 2.38-0.02 0.15 0 1.22-0.01 1.28 0 1.45 0.25 0.51-0.16 1.16 0.52 0.43-0.69 0.37 1.12 0.37-0.93h-3.08c0.54-0.64-0.5-1.64-0.9-2.4-1.59-3.06-2.46-6.25-2.22-9.86 0.57-8.55 5.81-9.23 1.95-11.39l-0.32 0.08z"/>
    <path class="fil15" d="m196.05 21.61c0.87 1.56-0.25 21.12 0.33 25.1l1.72-0.97c-0.68-0.25-0.44-0.48-0.44-1.5 0-0.68 0.02-1.38 0.02-2.07 0-3.83 0.23-17.93-0.24-20.22-0.29-1.48-1-3.13-1.83-4.29-0.54-0.76-0.24-0.55-1.03-1 0.54 1.64 1.28 2.92 1.47 4.95z"/>
    <path class="fil15" d="m218.23 131.51c0.25 0.42 0.37 0.55 0.62 0.98l1.07 0.08c-0.8-3.79-1.51-5.67-1.29-10.01 0.26-5.08 1.37-6.3 1.85-9.08l-1.93-0.08c-1.74 4.58-2.02 11.37-0.51 16.3 0.67 2.18 0.51 1.37 0.19 1.81z"/>
    <path class="fil15" d="m123.07 78.09c0.66 0.87 1.88 1.28 3.2 1.97 1.08 0.56 2.12 1.13 3.18 1.6 0.97-0.46 2.34-1.91 3.32-2.74l6.5-5.5c0.84-0.76 2.4-2.22 3.31-2.63-0.19-1.35 0.13-1.29-0.87-1.58-0.17 0.66-2.46 2.28-3.18 2.95l-10.11 8.49-5.35-2.56z"/>
    <path class="fil15" d="m166.79 104.03l0.1 2.25 1.21 0.28c-1.1-2.06-0.08-9.85-0.09-12.84-0.01-4.36 0.08-8.92 0.27-13.28h0.28c-0.23-1.34-0.76-2.63-0.69-3.95-0.3 0.19-0.42-0.11-0.54 1.39-0.03 0.37 0.04 1.35 0.04 1.8 0.01 1.19-0.01 2.38-0.02 3.57-0.07 6.67-0.66 14.56-0.56 20.78z"/>
    <path class="fil15" d="m111.24 64.88c-0.09 1.76-1.14 3.56-1.6 4.95-0.95-0.18-3.67-1.18-4.79-1.54-1.58-0.51-2.91-1.01-4.3-1.68 0.31 0.57 0.27 0.65 1.26 1.16l5.05 1.86c1.82 0.54 1.72 0.59 2.84 1.73 1.57 1.61 1.93 0.88 2.87 0.79-0.5-0.66-0.78-0.7-1.45-1.15 0.89-2 1.8-2.72 2.63-5.5-0.17-0.6 0.33-0.06-0.47-0.55-0.18-0.12-0.26-0.15-0.58-0.22-1.04-0.23-0.69-0.24-1.46 0.15z"/>
    <path class="fil15" d="m20.32 112.06c0.28-0.24 0.15-0.1 0.4-0.44 0.15-0.21 0.17-0.24 0.3-0.49 0.24-0.43 0.32-0.64 0.49-1.08-3.98-0.27-7.78 0.39-11.54-0.57 2.35 2.88 5.99 2.07 10.21 2.07l0.14 0.51z"/>
    <path class="fil15" d="m204.24 126.12l2.41-0.04 0.21-0.08v-0.22c-2.57 0.06-2.12-0.62-2.68-3.18-0.37-1.65-0.63-3.47-0.83-5.16l3.21-0.17-0.78-0.26c-0.97-0.14-2.61 0.18-3.6-0.13-0.46 2.08 1.18 7.71 2.06 9.24z"/>
    <path class="fil15" d="m7.76 159.21c0.96-0.55 1.32-1.13 1.85-1.96-2.99-0.01-4.56 0.13-7.3-0.58 1.63 1.77 2.37 2.12 5.36 2.12 0.4 0.41 0.18-0.24 0.09 0.42z"/>
    <path class="fil16" d="m151.61 47.44h6.07c-0.55 3.1-5.59 2.77-6.07 0zm-5.24-7.65c-0.07 0.04-0.16 0.11-0.2 0.14-0.03 0.02-0.11 0.1-0.14 0.12-0.26 0.25-0.27 0.24-0.04 0.2-0.13 0.99-0.04 0.7-0.02 1.49 0.06 1.42 0.42 0.61-0.28 1.25 1.07 0.86 1.42 2.7 1.96 4.21 0.28 0.8 0.55 1.49 0.85 2.22 0.52 1.25 0.48 1.59 1.51 1.88 0.61 0.34 0.22-0.23 0.37 0.76 1.43 0.21 2.22 0.95 4.12 1.01 1.98 0.06 2.64-0.44 4.18-0.96-0.27 0.79-2.72 4.86-4.66 4.81 1.21 1.04 4.07-0.91 4.98-1.52 0.18-6.39-0.27-1.12 2.39-7.85l1.38-3.72c0.61-1.18-0.12-0.09 0.85-0.93-0.93 0.31-0.21 0.22-0.49-0.4 0.38-0.71 0.45-1.83 0.22-2.6-0.46 2.19-2.32 3.17-4.91 2.39-2.47-0.74-1.89-3.08-3.45-4.01-1.79 0.57-0.9 3.21-3.83 4.15-2.48 0.79-4.54-0.26-4.79-2.64z"/>
    <path class="fil16" d="m147.55 36.57c3.34-0.46 4.03 0.22 6.92 0.35 2.5 0.12 4.08-0.93 7.62-0.6 1.04-0.02 0.53 0.01 0.89-0.27-0.86-2.14-2.08-4.06-3.65-5.19-0.8 0.49-4.7 1.55-5.83 1.8l-2.09-2.5c-2.95 0.32-4.14 3.3-4.87 6.14 0.39 0.35-0.71 0.39 1.01 0.27z"/>
    <path class="fil17" d="m32.69 130.7l3.79 0.01c0.84-1.25 1.16-3.3 1.51-4.82-1.4-1.49-1.52-5.31-1.17-7.68 0.25-1.75 1.2-4.88 2.55-6.16l0.06-2.11-6.78 0.06c-1.2 2.42-3.88 4.61-3.91 10.25-0.02 5.76 2.82 8.08 3.95 10.45z"/>
    <path class="fil17" d="m107.39 130.73l3.99 0.01c-0.49-1.02-1.44-2.14-2.08-3.36-3.55-6.65-1.02-10.3-0.9-12.8-0.02-0.59 0.16-0.09-0.14-0.43l-3.37 0.05-0.1-0.05c-1.15 3.16-1.81 5.59-0.98 9.28 0.85 3.7 2.32 4.87 3.58 7.3z"/>
    <path class="fil18" d="m84.11 112.84l0.02-0.33c-5.16 0.2-24.87 0.61-28.61-0.56 0.18 0.55 2.66 3.01 3.52 4.16 5.02 6.74 4.9 10.03 4.31 17.6 1.71-1.11 2.95-2.92 4.53-4.31 3.89-3.41 9.02-10.23 9.96-16.33 2.21-0.31 4.04-0.27 6.27-0.23z"/>
    <path class="fil18" d="m158.69 113.29c0.08-0.58-0.64-0.51 2.16-0.48 4.82 0.06 2.35-0.39 5.85 4.41 2.93 4.01 6.78 8.47 10.49 11.35-0.32-9.28-1.24-6.69 2.94-15.69 1.3-0.09 5.24 0.14 6.28-0.27 0.09-0.04 0.17-0.1 0.24-0.13 0.08-0.03 0.18-0.08 0.25-0.14-1.01 0.11-0.85 0.21-1.67-0.05l-26.98 0.28c0.25 1.13 0.11 0.45 0.44 0.72z"/>
    <path class="fil19" d="m47.43 23.29l0.06-0.42c-2.68-0.6-13.91 0.31-15.16-0.34 0.22-0.76 0.27-0.52 1.35-0.54 3.3-0.04 11.73 0.25 13.82-0.09 0.31-2.95 0.95-3.81 2.1-5.96-1.74-0.34-10.21-0.15-13.08-0.15-2.12 0-3.36 0.36-3.85-0.41 0.38-0.23-0.31-0.03 0.57-0.21l1.48-0.05c3.29 0.03 13.81 0.16 15.59-0.11 0.41-0.18 0.2 0.07 0.37-0.41-0.66-0.49-11.79-0.23-14.16-0.23-2.33 0-3.95 0.41-4.19-0.52 1.4-0.68 16.25 0.32 19.49-0.31 1.41-0.71 3.36-2.48 5.61-2.17-0.58-0.42-0.55-0.33-1.49-0.38-6.41-0.32-17.31 0.27-24.38 0.03l-0.49 0.4c-0.65 0.5-1.33 0.86-1.68 1.93-0.31 0.93-0.19 3.2-0.19 4.33 0 2.56-0.57 6.21 1.04 7.8 1.61 1.6 5.58 0.98 8.06 0.98h9.03v-2.21l-13.38 0.03c-1.19-0.01-1.11 0.2-1.77-0.48 0.51-0.43 0.8-0.52 1.78-0.55l13.47 0.04z"/>
    <path class="fil19" d="m201.43 57.97l5.39-0.01c0.42 0.3 0.28-0.46 0.37 0.59-0.18 0.09 0.06 0.08-0.65 0.2-0.28 0.05-0.44 0.06-0.73 0.07l-4.99-0.05c-0.49 4.44-0.62 7.38 1.6 10.62 1.2-0.02 3.83-0.26 4.79 0.28l-0.18 0.47c-0.87 0.41-2.82 0.06-3.31 0.18-0.96 0.24-0.56-0.16-0.92 0.68 0.37 0.54-0.01 0.26 0.7 0.46 1.04 0.29 2.56-0.26 3.67 0.29l-0.08 0.47c-0.9 0.48-2.81 0.23-4.04 0.23l0.01 2.89c1.71 0.47 7.53 0.28 9.63 0.06-1.79-1.49-3.47-7.25-3.44-10.52 0.07-6.81 3.4-9.14 3.21-10.81h-10.63c-0.2 0.69-0.38 1.28-0.54 2-0.26 1.23-0.34 0.94 0.14 1.9z"/>
    <path class="fil19" d="m202.22 97.25c1.22 0.03 8.29-0.24 9.31 0.27-0.24 0.65 0.17 0.2-0.37 0.56l-8.69 0.03c-0.41 1.39-0.08 6.55 0.32 7.65l6.84-0.01c2.15-0.03 1.6 0.04 1.87 0.46-0.63 0.29-0.21 0.19-1.1 0.24l-7.85-0.05 0.1 0.59c1.59-0.01 3.13-0.01 4.68-0.01 1.36 0 3.49-0.37 4.35 0.51-0.71 1.48-5.77 0.32-9.09 0.77l0.05 1.85 12.42 0.07c-1-2.71-2.2-4.08-2.15-7.8 0.03-1.49 0.28-2.79 0.73-4.15 0.4-1.18 1.31-2.53 1.41-3.5h-12.73l-0.1 2.52z"/>
    <path class="fil19" d="m18.49 61.41c2.18-1.58 3.83-12.24 3.84-15.92 0-3.31-1.19-12.48-3.36-15.67-0.22-0.32-0.18-0.26-0.4-0.47 0.45 5.76 1.61 7.12 1.68 16.14 0.02 2.8-0.12 5.61-0.42 8.37-0.29 2.67-1.02 5.18-1.34 7.55z"/>
    <path class="fil19" d="m218.23 131.51c0.32-0.44 0.48 0.37-0.19-1.81-1.51-4.93-1.23-11.72 0.51-16.3l0.11-0.85c-1.06 0.72-2.11 2.8-2.59 3.94-2.29 5.55-1.09 10.65 2.16 15.02z"/>
    <path class="fil19" d="m215.97 91.64c0.47-0.59-0.01-1.37-0.23-2.72-0.15-0.96-0.23-2.07-0.25-3.12-0.02-2.13 0.29-4.22 0.84-6.18l0.33-1.05c-2.08 0.97-4.25 9-0.69 13.07z"/>
    <path class="fil20" d="m113.75 65.5c-0.83 2.78-1.74 3.5-2.63 5.5 0.67 0.45 0.95 0.49 1.45 1.15 0.82 0.15 2.02 1.01 2.79 1.47l7.71 4.47 5.35 2.56 10.11-8.49c0.72-0.67 3.01-2.29 3.18-2.95 1.02-1.68-1.52-6.06-2.47-7.73-0.26-0.46-0.37-0.75-0.65-1.15-0.6-0.87-0.32-0.67-1.17-0.67-0.78 0.16-0.23-0.1-0.95 0.49-0.27 0.22-0.41 0.38-0.64 0.64-2.9 3.04-6.81 8.08-9.18 10.56-2.56-0.44-9.76-4.77-12.9-5.85z"/>
    <path class="fil20" d="m167.87 76.49c-0.07 1.32 0.46 2.61 0.69 3.95 1.97 4.07 1.89 16.51 2.68 22.1l5.89-0.23c0.66-16.09-1.18-27.24-4.44-42.53l-0.27-0.14-1.78 3.23c-0.03 0.06-0.05 0.13-0.08 0.19l-1.66 3.91c-1.9 5.06-0.97 5.5-1.03 9.52z"/>
    <path class="fil20" d="m159.96 56.86l-0.12 1.62c-0.46 3.32-2.69 12.95-2.48 15.41-0.35 1.33-0.19 3.06-0.09 4.54 0.87-1.3 1.54-4.19 2.1-5.85 1.06-3.14 0.94-3.35 1.03-6.95l0.79 0.75c0.52 0.42-0.25-0.03 0.57 0.4 0.47-2.41 2.61-7.61 3-9.44l0.49-1.64c0.27-0.56-2.66-0.87-3.37-1.03l-1.29-0.09c-0.11 0.77-0.21 1.79-0.63 2.28z"/>
    <path class="fil20" d="m145.03 55.68c-0.12 2.47 0.32 2.77 1.34 5.83 0.4 1.18 1.44 4.87 1.98 5.57l1.08-1.1c0.2 3.65-0.03 3.61 1.09 6.93 0.46 1.36 1.82 4.91 1.91 6.04 0-1.58-0.19-3.3 0.26-4.79-0.21-2.26-0.81-5.05-1.21-7.29-0.34-1.87-1.22-5.66-1.16-7.4-0.12-1.12-0.49-1.32-0.36-2.45-0.23-0.31-0.02 0.13-0.3-0.56l-0.37-1.52-1.07 0.06-3.19 0.68z"/>
    <path class="fil21" d="m55.05 96.47c0.48 2.16 3.21 2.35 4.14 0.39 0.36-2.2 0.18-33.48 0.18-36.57v-27.56c0-2.77 0.8-6.95-2.18-6.99-3.07-0.05-2.26 4.47-2.26 6.99l0.07 45.67c0 5.7-0.34 12.51 0.05 18.07z"/>
    <path class="fil21" d="m179.89 62.58c0.55 1.87 0.99 3.11 2.15 4.09 1.02 0.86 2.7 1.74 4.61 1.74 3.74 0.01 6.36-2.59 6.85-6.02 0.18-9.31-13.58-9.98-13.61 0.19z"/>
    <path class="fil22" d="m49.87 9.22l37.19-0.01c-0.61-1.27-1.97-2-2.11-4.29-0.16-2.5 1.12-3.41 1.95-4.92l-37.08 0.03c-0.85 1.38-2.12 2.12-2.08 4.63 0.04 2.32 1.25 3.15 2.13 4.56z"/>
    <path class="fil22" d="m2.31 156.67c2.74 0.71 4.31 0.57 7.3 0.58 1.14-0.86 1.18-1.44 2.14-2.29l-1.74 0.07c-7.76 0.18-6.77-3.45-6.77-7.48 0-14.89-2.23-14.3 13.36-14.3 4.01 0 10.06-0.36 13.82 0.08l0.51-0.55c0.82-0.93 1.09-0.99 1.49-1.85-3.53-0.23-26.1-0.53-28.5-0.12-2.39 0.8-3.66 1.65-3.73 4.48-0.07 2.45-0.27 18.02 0.35 19.39 0.39 0.87 1.5 1.43 1.77 1.99z"/>
    <path class="fil22" d="m50.04 157.24h-0.03l2.36-0.01h66.94l-0.68-2.25-64.52 0.02-2.64-0.03 2.06 0.19c-0.72 1.96-1 2.02-3.49 2.08z"/>
    <path class="fil22" d="m120.52 133.31l1.74-0.6-8.13-0.18c-0.67-0.6-0.9-1.12-1.41-1.79h-1.34l-3.99-0.01-30.69 0.02-2.94-0.03c-0.76 0.34-2.13 1.84-2.72 2.55l49.48 0.04z"/>
    <path class="fil22" d="m39.22 9.17l6.2 0.04c-0.71-1.41-2.09-1.97-2.13-4.54-0.04-2.28 1.28-3.26 1.97-4.66l-6.19 0.08c-0.12 1.03-1.52 2.23-1.57 4.57-0.04 2.02 0.92 3.49 1.72 4.51z"/>
    <path class="fil22" d="m206.27 92.41c-0.31-1.04-1.11-2.01-1.54-3.25-2.11-5.92 1.43-9.82 1.58-10.82l-3.7 0.06c-1.44 4.11-0.77 9.53-0.54 14.12 0.71 0.3 2.65 0.34 3.19 0.27 1.23-0.14 0.45 0.16 1.01-0.38z"/>
    <path class="fil22" d="m93.74 9.21l4.05-0.02c-0.89-1-2.14-2.23-2.25-4.29-0.06-1.1 0.11-1.78 0.57-2.68 0.57-1.13 0.64-1.25 1.58-1.86-0.07-0.04-0.16-0.08-0.22-0.1-0.07-0.03-0.15-0.08-0.23-0.1l-3.56-0.14c-0.83 1.14-2.11 2.39-2.08 4.65 0.04 2.35 1.32 3.19 2.14 4.54z"/>
    <path class="fil22" d="m89.36 9.21l2.08-0.01c-0.77-1.26-2.06-2.33-2.1-4.54-0.05-2.27 1.29-3.39 1.99-4.63l-2.04-0.01c-0.82 1.05-2.17 2.49-2.12 4.63 0.04 2.56 1.46 3.16 2.19 4.56z"/>
    <path class="fil22" d="m35.76 132.71l0.7-2c-0.44 0-1.09-0.05-1.48-0.04-2.02 0.08-0.87-0.08-1.33 0.66 0.73 0.32 1.43 0.91 2.11 1.38z"/>
    <path class="fil23" d="m204.8 127.42c-0.18 0.21-0.1 0.14-0.39 0.38l-4.74 2.91c-4.27 2.61-11.65 7.17-15.58 9.16-0.2 0.44-0.13 0.14-0.52 0.75l0.52 0.49c0.37 1.84 5.2 7.71 5.39 9.28 0.67 0.55 0.46 0.36 0.78 1.05l0.73 1.21 0.57 0.83 1.96 3.33 1.42 2.24 0.94 1.61c0.43 0.32 1.42 1.76 1.49 2.45l5.55 0.09c-0.09-0.59-2.27-6.6-2.5-9.27-0.94-11.43 2.47-18.14 6.88-27.56-0.21-0.52 0.52-0.51-0.44-0.37l-0.21 0.08c-0.24 0.35-0.08 0.18-0.39 0.49-0.06 0.06-0.32 0.28-0.43 0.36-0.53 0.39-0.32 0.3-1.03 0.49z"/>
    <path class="fil23" d="m37.63 168.3l5.02 0.02c1.11-0.6 2.47-3.52 3.25-4.76 1-1.58 1.98-3.45 3.05-4.76 0.36-0.83 0.46-1.09 1.06-1.56h0.03c0.24-0.76 0.18-0.69 0.65-1.4 0.07-0.11 0.21-0.31 0.33-0.45 0.29-0.34 0.09-0.15 0.45-0.42 0.13-1.02 1.12-2.4 1.89-3.28 0.22-0.44 0.16-0.4 0.54-0.86 0.16-0.31 0.28-0.58 0.44-0.79 0.38-0.5 0.28-0.36 0.61-0.55 0.39-1.84 1.44-2.41 1.93-3.98l-1.19-0.91-19.93-11.89c-0.68-0.47-1.38-1.06-2.11-1.38-0.17 0.35-0.24-0.07 0.15 0.78 1.3 2.82 1.74 3.15 3.2 7.05 1.17 3.11 2.01 5.78 2.63 9.14 0.57 3.08 0.91 7.32 0.54 10.73-0.63 5.72-1.69 6.07-2.54 9.27z"/>
    <path class="fil24" d="m76.7 130.75l30.69-0.02c-1.26-2.43-2.73-3.6-3.58-7.3-0.83-3.69-0.17-6.12 0.98-9.28l-19-0.01c-4.51 13.29-7.99 14.51-9.09 16.61z"/>
    <path class="fil24" d="m20.32 112.06c-0.11 1.6-2.2 4.4-1.94 9.73 0.25 4.87 1.79 6.13 3.1 8.93l11.21-0.02c-1.13-2.37-3.97-4.69-3.95-10.45 0.03-5.64 2.71-7.83 3.91-10.25l-11.14 0.05c-0.17 0.44-0.25 0.65-0.49 1.08-0.13 0.25-0.15 0.28-0.3 0.49-0.25 0.34-0.12 0.2-0.4 0.44z"/>
    <path class="fil24" d="m108.4 114.58c-0.12 2.5-2.65 6.15 0.9 12.8 0.64 1.22 1.59 2.34 2.08 3.36h1.34c-1.08-3.17-2.05-4.36-1.94-8.46 0.11-4.03 1.26-5.31 2.12-8.4-0.73 0.28-2.93 0.6-3.77 0.02l-0.73 0.68z"/>
    <path class="fil24" d="m201.95 94.73h0.37 12.73c0.19-0.78-0.94-1.26-1.71-1.78l-1.42-0.08-2.71 0.01-2.49 0.01-6.1 0.06h-0.02l1.48 0.07-0.13 1.71z"/>
    <path class="fil24" d="m37.99 125.89c0.87-4.2 1.37-9.4 1.38-13.84-1.35 1.28-2.3 4.41-2.55 6.16-0.35 2.37-0.23 6.19 1.17 7.68z"/>
    <path class="fil25" d="m122.26 132.71l-1.74 0.6c-0.47 0.43-0.59 0.56-1.18 0.88-0.17 1.07-0.64 1.14-0.69 2.84v0.94l-0.01 10.6 0.01 1.27v0.95l0.01 0.88-0.03 3.31 0.68 2.25c0.36 0.25 0.61 0.44 0.98 0.75 0.01 0.01 0.41 0.37 0.41 0.37 0.35 0.34 0.16 0.12 0.38 0.45 1.11-0.05 2.85 0.28 4.29 0.28h32.42c12.22 0 25 0.36 37.15-0.03l-1.42-2.24-64.58-0.06c-0.66 0.59-1.57 0.6-2.57 0.48-6.67-0.84-5.09-4.91-5.09-11.47 0-5.44-1.27-9.88 3.54-10.68 1.28-0.21 2.95-0.5 4.35-0.11 2.1 0.48 9.6 0.15 12.28 0.15 5.07 0 33.74 0.23 36.18-0.08-0.35-0.47-2.66-2.27-3.19-2.56-3.9 0.37-9.27 0.07-13.33 0.07h-13.02c-8.4 0-17.57-0.33-25.83 0.16z"/>
    <path class="fil25" d="m216.24 135.13l25.55-0.01c1.77 0.06 0.31 0.14 0.85-0.58-2.97-2.71-5.33-1.96-10.29-1.96-4.14 0-8.3 0.04-12.43-0.01l-1.07-0.08-4.86 0.08c0.37 0.72 1.68 2.21 2.25 2.56z"/>
    <path class="fil26" d="m137.42 59.66c0.85 0 0.57-0.2 1.17 0.67 0.28 0.4 0.39 0.69 0.65 1.15 0.95 1.67 3.49 6.05 2.47 7.73 1 0.29 0.68 0.23 0.87 1.58 0.81 3.54-0.42 25.02 0.91 32.87 0.78 0.3 0.86 0.08 1.57 0.51l0.07 2.37-81.68 0.08c0.95 0.69 8.97 0.36 10.09 0.36h66.64c0.84 0 1.7-0.02 2.55 0.01 0.14 0 1.26 0.05 1.29 0.04 2.6-0.31 0.69 0.34 1.52-0.81v-2.25l7.03 0.62 0.11-2.46c0.97-0.12 1.48 0.05 2.23-0.54l-2.24 0.1c0-3.75 0.57-25.97 0.02-27.53-0.45 1.49-0.26 3.21-0.26 4.79-0.09-1.13-1.45-4.68-1.91-6.04-1.12-3.32-0.89-3.28-1.09-6.93l-1.08 1.1c-0.54-0.7-1.58-4.39-1.98-5.57-1.02-3.06-1.46-3.36-1.34-5.83-0.06 0.05-0.12 0.13-0.16 0.17-1.83 1.88-6.14 1.86-7.45 3.81z"/>
    <path class="fil26" d="m157.36 73.89c-0.95 1.24 0.93 23.71 0.85 27.59l0.19 3.19c2.55 0.4 5.84-1.19 8.39-0.64-0.1-6.22 0.49-14.11 0.56-20.78 0.01-1.19 0.03-2.38 0.02-3.57 0-0.45-0.07-1.43-0.04-1.8 0.12-1.5 0.24-1.2 0.54-1.39 0.06-4.02-0.87-4.46 1.03-9.52l1.66-3.91c0.03-0.06 0.05-0.13 0.08-0.19l1.78-3.23c-0.63-1.2-2.29-1.54-3.53-2.02-0.74-0.29-1.37-0.5-2.07-0.73-1.93-0.65-1.43-0.61-1.57-1.19l-0.49 1.64c-0.39 1.83-2.53 7.03-3 9.44-0.82-0.43-0.05 0.02-0.57-0.4l-0.79-0.75c-0.09 3.6 0.03 3.81-1.03 6.95-0.56 1.66-1.23 4.55-2.1 5.85-0.1-1.48-0.26-3.21 0.09-4.54z"/>
    <path class="fil27" d="m3.46 83.44l7.59 0.01c4.26-0.17 27.03 0.58 28.83-0.16-0.44-2.28-0.87-3.57-0.92-6.11-3.28-0.77-28.79 0.52-30.24-0.38-3.23-0.13-4.3-5.19-2.09-7.6 1.87-2.03 7.53-1.26 10.74-1.26 5.22 0 20.03 0.25 24.11-0.04 0.28-1.75 0.03-3.38-0.11-5.09l-37.86 0.03c-1.62 1.97-3.18 6.91-3.3 10.2-0.16 4.52 1.21 7.61 3.25 10.4z"/>
    <path class="fil27" d="m47.43 28.24l0.04-1.66c-3.14 0.27-17.35 0.49-19.1-0.76-1.52-1.1-0.93-6.52-0.93-8.91 0-3.96-0.43-5.9 4.12-5.89 7.07 0.24 17.97-0.35 24.38-0.03 0.94 0.05 0.91-0.04 1.49 0.38l25.04-0.15c8.05 0 17.44 0.43 25.3-0.08-0.45-1.14-0.92-1.36-2.06-1.88l-7.92-0.07-4.05 0.02-2.3-0.01-2.08 0.01h-2.3l-37.19 0.01-4.45-0.01-6.2-0.04c-15.94-0.02-13.74-2.14-13.78 13.61-0.01 6.22 1.49 5.42 8.27 5.42 4.38 0 9.43-0.24 13.72 0.04z"/>
    <path class="fil27" d="m211.92 92.87l1.42 0.08 3.23-0.04c-0.24-0.69-0.33-0.61-0.6-1.27-3.56-4.07-1.39-12.1 0.69-13.07-0.65-0.68 0.29-0.27-1.16-0.52-0.06-0.01-1.13 0-1.28 0-0.8 0.01-1.57 0-2.38 0.02-1.17 2.37-2.57 3.75-2.53 7.48 0.04 3.5 1.35 4.99 2.61 7.32z"/>
    <path class="fil28" d="m154.99 25.35c1.61 0.5 5.21 2.89 6.27 3.92 1.83 1.8 2.32 4.17 2.68 7.29l0.22-0.03 0.49 1.35c0.25 0.61 0.29 0.21 0.46 1.06 1.86 0.97 1.23 3.36-0.8 5.14-0.69 0.6-0.6 0.86-0.96 1.88-0.37 1.07-1.83 5.07-2.48 5.93-0.72 0.95-0.81 0.29-0.8 2.02 0.15 0.48 0.17 0.13 0.81 0.36l1 0.4c0.71 0.16 3.64 0.47 3.37 1.03 0.14 0.58-0.36 0.54 1.57 1.19 0.7 0.23 1.33 0.44 2.07 0.73 1.24 0.48 2.9 0.82 3.53 2.02l0.27 0.14c1.47 0.59 1.57 2.19 2.08 5.04 0.73 4.11 2.88 14.55 2.94 17.92l-0.26-57.66h-17.61c-1.01 0-2.06 0.03-3.07 0.01-1.88-0.02-1.57-0.5-3.32-0.52 0.81 1-0.29 0.56 1.54 0.78z"/>
    <path class="fil28" d="m167.17 126.1c-0.29-0.71-2.48-2.87-3.56-4.26l-3.26-4.63-40.85 0.01c-4.28 0.01-4.96 8.43 0.27 8.83 4.75 0.36 10.92 0.04 15.81 0.04 10.45 0 21.17-0.24 31.59 0.01z"/>
    <path class="fil28" d="m92.43 40.66c-3.45 3.67-6.08 7.14-8.17 11.94l-4.03 0.01c-1.68-3.2-3.55-5.09-5.61-7.12l1.64-1.75c1.68 0.49 2.11 1.3 3.02 2.13 0.76 0.71 1.62 2.16 2.27 2.55 0.52-4.87 3.53-8.02 5-11.56-1.09-0.61-13.18-0.24-15.5-0.21l-0.1 22.6 21.79 0.01 0.05-17.61c-0.18-1.55 0.06-0.54-0.36-0.99z"/>
    <path class="fil28" d="m8.72 76.8l30.26-0.04c0.34-4.33 2.48-5.56 2.5-8.86-4.08 0.29-18.89 0.04-24.11 0.04-3.21 0-8.87-0.77-10.74 1.26-2.21 2.41-1.14 7.47 2.09 7.6z"/>
    <path class="fil28" d="m39.28 53.72c-0.85-1.56 1.34-3.4 3.47-2.72 1.99 0.63 2.56 3.07 4.35 2.77 0.56-1.47 0.24-14.24 0.14-16.83h-19.04c0.98 3.31 2.04 4.55 1.96 8.81-0.09 4.63-1.77 6.66-1.94 8.05l11.06-0.08z"/>
    <path class="fil28" d="m206.86 125.78l1.07-0.24c1.18-1.12 2.28-2.1 1.94-4.76-0.22-1.72-1.55-3.66-3.31-3.51l-3.21 0.17c0.2 1.69 0.46 3.51 0.83 5.16 0.56 2.56 0.11 3.24 2.68 3.18z"/>
    <path class="fil28" d="m157.68 47.44h-6.07c0.48 2.77 5.52 3.1 6.07 0z"/>
    <path class="fil29" d="m113.54 112.6l-0.64 1.28c-0.86 3.09-2.01 4.37-2.12 8.4-0.11 4.1 0.86 5.29 1.94 8.46 0.51 0.67 0.74 1.19 1.41 1.79l8.13 0.18c8.26-0.49 17.43-0.16 25.83-0.16h13.02c4.06 0 9.43 0.3 13.33-0.07-0.74-0.97-2.45-2.13-3.49-3.18-0.65-0.67-2.95-2.81-3.78-3.2-10.42-0.25-21.14-0.01-31.59-0.01-4.89 0-11.06 0.32-15.81-0.04-5.23-0.4-4.55-8.82-0.27-8.83 1.39-0.68 35.85-0.21 40.71-0.24-0.43-1.34-1.38-2.32-1.52-3.69-0.33-0.27-0.19 0.41-0.44-0.72l26.98-0.28c-2.4-0.43-6.64-0.03-9.31-0.03-3.15 0-15.79-0.36-17.77 0.15-2.54 0.65-6.01 0.21-8.78 0.21-11.86 0-24.01 0.26-35.83-0.02z"/>
    <path class="fil29" d="m202.18 116.88c0.99 0.31 2.63-0.01 3.6 0.13l0.78 0.26c1.76-0.15 3.09 1.79 3.31 3.51 0.34 2.66-0.76 3.64-1.94 4.76 0.37 0.66 0.79 1.17 1.31 1.73 0.71 0.74 0.95 1.13 1.55 1.77 1.06 1.12 2.1 2.67 3.2 3.53l4.86-0.08c-0.25-0.43-0.37-0.56-0.62-0.98-3.25-4.37-4.45-9.47-2.16-15.02 0.48-1.14 1.53-3.22 2.59-3.94 0.1-0.7-0.31 0.17 0.19-0.69h-1.82l-3.53-0.02-12.04 0.02c0.06 1.39-0.09 4.06 0.72 5.02z"/>
    <path class="fil29" d="m199.93 54.07h1.9 10.63l0.32-0.08c-0.54-1.36-1.7-1.83-3.16-2.37l-9.06-0.05-0.63 2.5z"/>
    <path class="fil29" d="m204.8 127.42c0.71-0.19 0.5-0.1 1.03-0.49 0.11-0.08 0.37-0.3 0.43-0.36 0.31-0.31 0.15-0.14 0.39-0.49l-2.41 0.04 0.56 1.3z"/>
    <path class="fil30" d="m30.42 133.33l-0.71 0.61c-0.44 1.08-1.71 2.18-2.49 3.18l-0.98 1.02-0.83 1.01-0.92 1.06c-1.18 1.47-2.56 2.84-3.74 4.34-0.61 0.79-1.26 1.42-1.88 2.21-0.42 0.53-1.53 1.75-1.91 2.05l-0.86 1.1-0.92 0.96-0.85 1.13c-0.93 0.97-1.72 2-2.58 2.96-0.96 0.85-1 1.43-2.14 2.29-0.53 0.83-0.89 1.41-1.85 1.96-0.28 0.98-0.86 1.25-1.61 2.13-0.62 0.72-1.25 1.42-1.89 2.2-0.61 0.74-3.24 3.9-3.79 4.17 0.41 1-0.13 0.27 0.81 0.56l36.35 0.03c0.85-3.2 1.91-3.55 2.54-9.27 0.37-3.41 0.03-7.65-0.54-10.73-0.62-3.36-1.46-6.03-2.63-9.14-1.46-3.9-1.9-4.23-3.2-7.05-0.39-0.85-0.32-0.43-0.15-0.78 0.46-0.74-0.69-0.58 1.33-0.66 0.39-0.01 1.04 0.04 1.48 0.04h0.02l-3.79-0.01-11.21 0.02-17.56 0.09c2.4-0.41 24.97-0.11 28.5 0.12-0.4 0.86-0.67 0.92-1.49 1.85l-0.51 0.55z"/>
    <path class="fil30" d="m206.86 125.78v0.22c0.96-0.14 0.23-0.15 0.44 0.37-4.41 9.42-7.82 16.13-6.88 27.56 0.23 2.67 2.41 8.68 2.5 9.27 11.41 0.28 23.61-0.18 35.05 0.03 2.49 0.04 1.93 0 2.26-0.48-0.2-0.15-0.49-0.39-0.87-0.77-0.52-0.55-0.59-0.59-0.74-1.2-0.71-0.46-1.22-0.95-1.62-1.71-0.83-0.74-1.54-1.43-2.02-2.35-0.76-0.67-2.43-2.48-2.88-3.23-0.13-0.15-0.28-0.29-0.4-0.44-0.3-0.4-0.1-0.14-0.34-0.52-0.68-0.42-0.7-0.55-1.04-1.11-0.33-0.35-0.46-0.51-0.79-0.94-0.35-0.21-8.49-9.53-9.17-10.46-0.31-0.3-0.14-0.05-0.44-0.49-0.15-0.21-0.22-0.47-0.3-0.65-0.75-0.18-1.15-1.09-1.69-1.67-0.76-0.81-1.15-1.18-1.63-2.13l-0.06 0.05c-0.57-0.35-1.88-1.84-2.25-2.56-1.1-0.86-2.14-2.41-3.2-3.53-0.6-0.64-0.84-1.03-1.55-1.77-0.52-0.56-0.94-1.07-1.31-1.73l-1.07 0.24z"/>
    <path class="fil30" d="m150.32 59.47c-0.06 1.74 0.82 5.53 1.16 7.4 0.4 2.24 1 5.03 1.21 7.29 0.55 1.56-0.02 23.78-0.02 27.53l2.24-0.1 3.3-0.11c0.08-3.88-1.8-26.35-0.85-27.59-0.21-2.46 2.02-12.09 2.48-15.41-1.68 2.54-3.36 6.11-5.14 8.36-1.07-1.05-3.29-6.39-4.38-7.37z"/>
    <path class="fil31" d="m128.94 156.75l64.58 0.06-1.96-3.33c-7.32-0.55-61.16 0.59-62.54-0.32 0.32-0.69 0.33-0.46 1.42-0.47l29.4 0.02c6.18 0 26.7 0.31 31.15-0.06l-0.73-1.21c-2.81-0.43-49.29-0.14-58-0.12-2.74 0.01-2.89 0.36-3.23-0.45 1.31-0.76 60.37 0.29 60.45-0.48-0.19-1.57-5.02-7.44-5.39-9.28l-0.61 0.41c-1.34 0.62-30.2-0.17-34.36 0.29l0.09 8.51c-1.38-0.28-4.23-1.76-5.2-1.74-1.16 0.02-3.56 1.5-4.99 1.66l-0.02-8.51c-1.67 0-8.63 0.34-9.47-0.3 0.55-1 5.05-0.41 6.31-0.41h20.68l25.8 0.03c1.39-0.09 1.04-0.22 1.25-0.43 0.39-0.61 0.32-0.31 0.52-0.75-1.39 0.15-53.78 0.2-54.65-0.08-0.74-0.23-0.26 0-0.75-0.41 0.6-0.91 0.15-0.66 1.51-0.78l5.13 0.04c15.03 0 32.56 0.33 46.99-0.02-1.24-0.49-2.96-2.22-4.01-2.88-1.23-0.76-5.01-0.35-6.73-0.35-5.78 0-39.8 0.24-42.41-0.06-2.03-0.27-3.94 1.49-4.54 3.04-0.55 1.4-0.32 5.61-0.32 7.39 0 5.61-1 9.97 4.63 10.99z"/>
    <path class="fil31" d="m118.64 148.57l0.01-10.6-49.75-0.14c-3.55 2.51-7.17 6.4-11.87 8.02 0.38 0.84 0.4 0.78 1.32 1.29-0.37 0.79-0.62 0.73-0.62 1.43h60.91z"/>
    <path class="fil31" d="m8.38 107.8l31.21 0.01 0.18-3.13-24.73 0.05c-1.94-0.14-1.05 0.1-1.5-0.81 1.04-0.83 11.29-0.43 13.28-0.43l11.77 0.04c1.48-0.08 0.95 0.15 1.26-0.63-0.29-0.45 0.1-0.26-1-0.32-0.52-0.03-1.28 0.01-1.82 0.02l-23.27-0.51 0.1-0.37c0.66-0.57 1.08-0.34 2.74-0.33h23.31l0.31-10.84c-4.77 0.37-17.26 0.01-23.62 0.06-3.06 0.02-2.48 0.16-2.75-0.47 0.95-0.5 23.65-0.36 26.42-0.16l0.08-3.98-32.17 0.01c1.21 2.95 3.5 4.88 3.58 10.76 0.08 6.16-2.68 8.61-3.38 11.03z"/>
    <path class="fil31" d="m219.62 138.88c3.8 0.63 16.07-0.51 17.49 0.5-0.74 0.42-1.33 0.33-2.21 0.32l-12.78-0.02c-1.06-0.01-1.27-0.07-1.76 0.34 0.68 0.93 8.82 10.25 9.17 10.46 1.88 0.4 6.33-0.35 7.59 0.39-0.31 0.71-0.33 0.48-1.43 0.48l-5.37 0.07c0.34 0.56 0.36 0.69 1.04 1.11 1.1 0.28 2.14 0.19 3.29 0.18 1.01 0 2.13-0.31 2.48 0.45-1.08 0.71-3.61 0.2-5.03 0.33 0.45 0.75 2.12 2.56 2.88 3.23l7.54 0.09c-0.39-1.34-1.67-3.12-2.3-4.89-1.99-5.54-0.66-13.1 2.51-16.44-2.68-0.82-23.41 0.39-26.43-0.4 0.48 0.95 0.87 1.32 1.63 2.13 0.54 0.58 0.94 1.49 1.69 1.67z"/>
    <path class="fil31" d="m10.01 155.03l1.74-0.07c0.86-0.96 1.65-1.99 2.58-2.96-0.31-0.59 0-0.32-0.78-0.45-0.08-0.02-1.13 0.01-1.29 0.02-1 0.02-1.38 0.26-1.7-0.45 0.96-0.64 3.35-0.27 4.62-0.25l0.92-0.96c-0.3-0.38-0.02-0.44-1.53-0.44-0.5 0-1.03 0.01-1.54 0.02-0.94 0-2.12 0.28-2.47-0.41 0.87-0.66 5.02-0.31 6.4-0.27 0.38-0.3 1.49-1.52 1.91-2.05 0.62-0.79 1.27-1.42 1.88-2.21 1.18-1.5 2.56-2.87 3.74-4.34-0.35-0.39-0.04-0.21-0.74-0.34-0.03-0.01-0.68-0.03-0.75-0.03l-8.95 0.02c-2.75 0.01-2.67 0.32-2.94-0.48 0.96-0.53 12.13-0.14 14.3-0.23l0.83-1.01c-0.52-0.38-1.14-0.28-1.97-0.27h-10.22c-0.68 0-1.4 0.03-2.07 0.03-1.17-0.02-1.16 0.22-1.39-0.56 1.09-0.5 14.09-0.07 16.63-0.22 0.78-1 2.05-2.1 2.49-3.18 0.69-1.03 0.21-0.18-0.09-0.53h-12.25c-3.97 0-8.32-0.69-10.49 1.87-1.76 2.08-1.04 8.06-1.04 11.25 0 4.54-0.58 6.23 3.43 8.09l0.74 0.41z"/>
    <path class="fil31" d="m23.26 57.74l17.17 0.08-1.15-4.1-11.06 0.08c0.17-1.39 1.85-3.42 1.94-8.05 0.08-4.26-0.98-5.5-1.96-8.81h19.04c0.1 2.59 0.42 15.36-0.14 16.83l0.38-0.12-0.04-20.96-24.13-0.11c0.02 0.68 1.57 4.21 1.92 5.55 0.56 2.21 0.93 4.66 0.95 7.1 0.03 3.47-1.31 10.37-2.92 12.51z"/>
    <path class="fil31" d="m54.11 155l64.52-0.02 0.03-3.31-62.94-0.08c-0.53 1.26-1.66 2.28-1.61 3.41z"/>
    <path class="fil31" d="m70.16 137.17c8.1-0.04 16.21 0 24.31 0h12c2.72 0 10 0.34 12.18-0.14 0.05-1.7 0.52-1.77 0.69-2.84-1.03-0.16-2.12 0.09-3.16-0.08-1.21-0.19-0.84-0.49-2.8-0.49-4.75 0-38.97-0.25-39.87 0.2-0.05 0.02-3.08 2.7-3.35 3.35z"/>
    <path class="fil32" d="m69.61 68.1c0.97-0.44 22.12-0.54 23.72-0.05 0.25 1.09 0.49 23.85-0.1 24.42-0.55 0.53-15.12 0.22-17.9 0.22-1.19 0-5.2 0.53-5.76-0.37-0.25-0.41-0.28-23.19 0.04-24.22zm24.32-28.84l-0.18 20.73c-0.32 0.26-0.05 0.14-0.59 0.3-0.36 0.1-0.33 0.08-0.71 0.11-3.19 0.23-21.68-0.01-22.48-0.15-0.34-1.74-0.31-23.46 0.08-24.71l17.33-0.03c0.52-0.53 2.93-4.26 3.18-4.94 1.63 0.29 4.15 1.62 5.8 2.33 1.7 0.74 3.7 1.65 5.37 2.28l-1.21 0.55c-2.72 0.81-4.31 1.51-6.59 3.53zm-30.48 67.36l81.68-0.08-0.07-2.37c-0.71-0.43-0.79-0.21-1.57-0.51-1.33-7.85-0.1-29.33-0.91-32.87-0.91 0.41-2.47 1.87-3.31 2.63l-6.5 5.5c-0.98 0.83-2.35 2.28-3.32 2.74-1.06-0.47-2.1-1.04-3.18-1.6-1.32-0.69-2.54-1.1-3.2-1.97l-7.71-4.47c-0.77-0.46-1.97-1.32-2.79-1.47-0.94 0.09-1.3 0.82-2.87-0.79-1.12-1.14-1.02-1.19-2.84-1.73l-5.05-1.86c-0.99-0.51-0.95-0.59-1.26-1.16-1.01-0.9-1.54-0.65-0.68-2.71 1.95-4.7 4.07-0.82 7.93 0.3-0.43-1.36-1.88-2.68-1.25-4.08 1.42 0.16 3.46 3.77 4.69 4.76 0.77-0.39 0.42-0.38 1.46-0.15 0.32 0.07 0.4 0.1 0.58 0.22 0.8 0.49 0.3-0.05 0.47 0.55 3.14 1.08 10.34 5.41 12.9 5.85 2.37-2.48 6.28-7.52 9.18-10.56 0.23-0.26 0.37-0.42 0.64-0.64 0.72-0.59 0.17-0.33 0.95-0.49 1.31-1.95 5.62-1.93 7.45-3.81 0.04-0.04 0.1-0.12 0.16-0.17l3.19-0.68 1.12-0.47c0.99-0.23-0.42 0.42 0.81-0.11 0.19-1.18 0.16-2.11-0.14-3.12-1.03-0.29-0.99-0.63-1.51-1.88-0.3-0.73-0.57-1.42-0.85-2.22-0.54-1.51-0.89-3.35-1.96-4.21-0.91-0.77-1.64-2.3-1.49-4.14 0.54-1.01 0.66-0.47 0.92-1.34 0.24-0.76 0.07-1.04 0.42-1.77 0.25-4.88 2.56-6.37 4.88-7.82 0.98-0.61 0.53-0.69 1.14-1.42 0.56-0.67 2.12-1.64 3.43-1.15-1.83-0.22-0.73 0.22-1.54-0.78 1.75 0.02 1.44 0.5 3.32 0.52 1.01 0.02 2.06-0.01 3.07-0.01h17.61v-5.87h-0.51-113.31l-0.18 87.41z"/>
    <polygon class="fil32" points="70.86 91.41 92.26 91.41 92.24 69.13 70.8 69.13"/>
   <path class="fil33" d="m57.43 11.37c-2.25-0.31-4.2 1.46-5.61 2.17l-1.14 1.06c-0.17 0.48 0.04 0.23-0.37 0.41-0.03 0.04-0.34 0.52-0.34 0.52-0.22 0.29-0.29 0.33-0.37 0.41-1.15 2.15-1.79 3.01-2.1 5.96l-0.01 0.97-0.06 0.42 0.04 3.29-0.04 1.66 0.04-0.01-0.03 4.46 0.04 20.96 0.06 47.95c0.19 0.79 0.09 0.37 0.25 0.66l0.08-39.71 6.88-0.09c0 3.95-0.49 32.93 0.3 34.01-0.39-5.56-0.05-12.37-0.05-18.07l-0.07-45.67c0-2.52-0.81-7.04 2.26-6.99 2.98 0.04 2.18 4.22 2.18 6.99v27.56c0 3.09 0.18 34.37-0.18 36.57l0.56-34.47 3.32-0.11 0.08 43.68c0.16 0.59 0.14 0.44 0.3 0.66l0.18-87.41c0.18-0.18-0.28-0.37 1.46-0.41l26.83 0.03h57.19c9.5 0 19.27-0.22 28.74 0.02 0.45 1.51 0.19 38.88 0.16 43.73-0.07 14.62 0.26 29.44-0.05 44.03 0.57-0.34 0.58 0.18 0.52-2.44-0.27-12.84-0.01-28.64-0.01-41.59h1.42c0.03-10.17 13.79-9.5 13.61-0.19l2.08-0.1v20.45c0 3.53-0.45 18.05 0.15 20.3 0.87-1.06 0.44-35.98 0.41-40.46-0.05-6.79-0.03-13.61-0.03-20.41 0-6.44 0.41-14.29-0.06-20.56-0.19-2.03-0.93-3.31-1.47-4.95-0.49-0.29-0.79-1.02-1.29-1.54-1.53-1.59-2.73-2.67-5.18-3.49-2.94-0.98-7.59-0.62-10.91-0.62-5.28 0-67.33-0.31-69.43 0.13-7.86 0.51-17.25 0.08-25.3 0.08l-25.04 0.15z"/>
   <path class="fil34" d="m59.19 96.86c-0.93 1.96-3.66 1.77-4.14-0.39-0.79-1.08-0.3-30.06-0.3-34.01l-6.88 0.09-0.08 39.71c-0.56 2.01 1.65 5.24 2.51 6.26 1.03 1.23 3.36 3.05 5.22 3.43 3.74 1.17 23.45 0.76 28.61 0.56l21.52 0.04 3.82 0.03 4.07 0.02c11.82 0.28 23.97 0.02 35.83 0.02 2.77 0 6.24 0.44 8.78-0.21 1.98-0.51 14.62-0.15 17.77-0.15 2.67 0 6.91-0.4 9.31 0.03 0.82 0.26 0.66 0.16 1.67 0.05 2.69-0.97 4.04-1.49 5.74-3.2 1.4-1.4 3.15-3.79 3.09-6.1-0.6-2.25-0.15-16.77-0.15-20.3v-20.45l-2.08 0.1c-0.49 3.43-3.11 6.03-6.85 6.02-1.91 0-3.59-0.88-4.61-1.74-1.16-0.98-1.6-2.22-2.15-4.09h-1.42c0 12.95-0.26 28.75 0.01 41.59 0.06 2.62 0.05 2.1-0.52 2.44l-0.71-0.06-5.77 0.03-3.38-0.02-1.21-0.28c-3.63-0.28-7.4 0.08-10.98-0.16-2.13-0.14-7.26 0.1-10.37 0.1-0.83 1.15 1.08 0.5-1.52 0.81-0.03 0.01-1.15-0.04-1.29-0.04-0.85-0.03-1.71-0.01-2.55-0.01h-66.64c-1.12 0-9.14 0.33-10.09-0.36-0.16-0.22-0.14-0.07-0.3-0.66l-0.08-43.68-3.32 0.11-0.56 34.47z"/>
   <path class="fil35" d="m39.28 53.72l1.15 4.1-17.17-0.08c0.52 0.66-0.23 0.26 0.99 0.43l16.28-0.01 0.63 4.15h-20.94c-0.06 0.03-0.16-0.01-0.19 0.07l-0.63 0.16c-3.33 0.48-13.99-0.58-15.89 0.3l37.86-0.03c0.14 1.71 0.39 3.34 0.11 5.09-0.02 3.3-2.16 4.53-2.5 8.86l-30.26 0.04c1.45 0.9 26.96-0.39 30.24 0.38 0.05 2.54 0.48 3.83 0.92 6.11 0.55 1.05 0.61 1.39 0.47 2.71l-0.08 3.98-0.05 0.57-0.31 10.84h-23.31c-1.66-0.01-2.08-0.24-2.74 0.33l25.99-0.1v0.59l-26.09-0.12 23.27 0.51c0.54-0.01 1.3-0.05 1.82-0.02 1.1 0.06 0.71-0.13 1 0.32-0.31 0.78 0.22 0.55-1.26 0.63l-11.77-0.04c-1.99 0-12.24-0.4-13.28 0.43 0.45 0.91-0.44 0.67 1.5 0.81l24.73-0.05-0.18 3.13-0.16 2.13-0.06 2.11c-0.01 4.44-0.51 9.64-1.38 13.84-0.35 1.52-0.67 3.57-1.51 4.82h-0.02l-0.7 2 19.93 11.89c2.7-0.96 3.78-1.8 5.96-3.27 1.45-0.98 0.92-0.76 1.91-1.62 0.03-0.55 0.5-0.41 0.98-0.46 0.48-0.56 0.93-0.98 1.46-1.62 0.45-0.64 0.59-0.53 1.64-0.55 0.84-0.02 1.7 0 2.52 0.09 0.27-0.65 3.3-3.33 3.35-3.35 0.9-0.45 35.12-0.2 39.87-0.2 1.96 0 1.59 0.3 2.8 0.49 1.04 0.17 2.13-0.08 3.16 0.08 0.59-0.32 0.71-0.45 1.18-0.88l-49.48-0.04c0.59-0.71 1.96-2.21 2.72-2.55l3.2-3.73c3.06-3.87 5.84-9.16 7.15-14.15-2.23-0.04-4.06-0.08-6.27 0.23-0.94 6.1-6.07 12.92-9.96 16.33-1.58 1.39-2.82 3.2-4.53 4.31 0.59-7.57 0.71-10.86-4.31-17.6-0.86-1.15-3.34-3.61-3.52-4.16-1.86-0.38-4.19-2.2-5.22-3.43-0.86-1.02-3.07-4.25-2.51-6.26-0.16-0.29-0.06 0.13-0.25-0.66l-0.06-47.95-0.38 0.12c-1.79 0.3-2.36-2.14-4.35-2.77-2.13-0.68-4.32 1.16-3.47 2.72z"/>
   <path class="fil36" d="m195.73 103.04c0.06 2.31-1.69 4.7-3.09 6.1-1.7 1.71-3.05 2.23-5.74 3.2-0.07 0.06-0.17 0.11-0.25 0.14-0.07 0.03-0.15 0.09-0.24 0.13-1.04 0.41-4.98 0.18-6.28 0.27-4.18 9-3.26 6.41-2.94 15.69-3.71-2.88-7.56-7.34-10.49-11.35-3.5-4.8-1.03-4.35-5.85-4.41-2.8-0.03-2.08-0.1-2.16 0.48 0.14 1.37 1.09 2.35 1.52 3.69-4.86 0.03-39.32-0.44-40.71 0.24l40.85-0.01 3.26 4.63c1.08 1.39 3.27 3.55 3.56 4.26 0.83 0.39 3.13 2.53 3.78 3.2 1.04 1.05 2.75 2.21 3.49 3.18 0.53 0.29 2.84 2.09 3.19 2.56-2.44 0.31-31.11 0.08-36.18 0.08-2.68 0-10.18 0.33-12.28-0.15v0.36c2.61 0.3 36.63 0.06 42.41 0.06 1.72 0 5.5-0.41 6.73 0.35 1.05 0.66 2.77 2.39 4.01 2.88-14.43 0.35-31.96 0.02-46.99 0.02l-5.13-0.04c-1.36 0.12-0.91-0.13-1.51 0.78 0.49 0.41 0.01 0.18 0.75 0.41 0.87 0.28 53.26 0.23 54.65 0.08 3.93-1.99 11.31-6.55 15.58-9.16l4.74-2.91c0.29-0.24 0.21-0.17 0.39-0.38l-0.56-1.3c-0.88-1.53-2.52-7.16-2.06-9.24-0.81-0.96-0.66-3.63-0.72-5.02l-0.07-1.57 13.6 0.35c0.11-0.16 0.61 0.32 0.07-0.46l-12.42-0.07-0.05-1.85c3.32-0.45 8.38 0.71 9.09-0.77-0.86-0.88-2.99-0.51-4.35-0.51-1.55 0-3.09 0-4.68 0.01l-0.1-0.59h-1.44l0.08-0.8c-0.37-1.05-0.49-6.38-0.25-7.54l-0.21-0.59 10.8 0.05c-1.02-0.51-8.09-0.24-9.31-0.27l-1.5-0.03-0.06-2.48-0.06-1.79h0.02c-0.24-2.5-0.24-5.39-0.31-7.92-0.1-3.23-0.47-4.68 0.56-7.57l0.33-1.62 8.68-0.05c2.9-0.05 2.3-0.12 2.59 0.49 0.38-0.31 0.45 0.6 0.22-0.88-2.1 0.22-7.92 0.41-9.63-0.06l-0.01-2.89c1.23 0 3.14 0.25 4.04-0.23l-5.49 0.12-0.04-0.68 5.61 0.09c-1.11-0.55-2.63 0-3.67-0.29-0.71-0.2-0.33 0.08-0.7-0.46 0.36-0.84-0.04-0.44 0.92-0.68 0.49-0.12 2.44 0.23 3.31-0.18-1 0-2.02-0.02-3.02 0-1.2 0.01-1.81 0.32-2.6-0.16 0.34-0.32-0.1-0.41 1.31-0.37l4.49 0.06c-0.96-0.54-3.59-0.3-4.79-0.28l-1.13-0.02c-0.53-2.08-1.49-2.92-1.95-4.69-0.45-1.74-0.44-3.83-0.27-5.81l1.75-0.1 4.99 0.05c0.29-0.01 0.45-0.02 0.73-0.07 0.71-0.12 0.47-0.11 0.65-0.2l-7.52 0.1c-0.83-0.34-0.39 0.34-0.45-0.69l0.71-3.89 0.63-2.5c0.17-1.17 0.91-2.83 0.9-4.08-0.74-1.16-1.53-1.8-3.36-1.75l-1.72 0.97c-0.58-3.98 0.54-23.54-0.33-25.1 0.47 6.27 0.06 14.12 0.06 20.56 0 6.8-0.02 13.62 0.03 20.41 0.03 4.48 0.46 39.4-0.41 40.46z"/>
   <path class="fil37" d="m18.57 29.35c0.22 0.21 0.18 0.15 0.4 0.47 2.17 3.19 3.36 12.36 3.36 15.67-0.01 3.68-1.66 14.34-3.84 15.92l-0.06 0.88 1.79 0.02h20.94l-0.63-4.15-16.28 0.01c-1.22-0.17-0.47 0.23-0.99-0.43 1.61-2.14 2.95-9.04 2.92-12.51-0.02-2.44-0.39-4.89-0.95-7.1-0.35-1.34-1.9-4.87-1.92-5.55l24.13 0.11 0.03-4.46-29.06 0.19 0.16 0.93z"/>
   <path class="fil38" d="m177.45 25.08l0.26 57.66c-0.06-3.37-2.21-13.81-2.94-17.92-0.51-2.85-0.61-4.45-2.08-5.04 3.26 15.29 5.1 26.44 4.44 42.53l-5.89 0.23c-0.79-5.59-0.71-18.03-2.68-22.1h-0.28c-0.19 4.36-0.28 8.92-0.27 13.28 0.01 2.99-1.01 10.78 0.09 12.84l3.38 0.02c0.26-1.45-0.18-2.33 1.6-2.36 0.8-0.01 2.75 0.44 3.77 0.56l0.4 1.77 0.71 0.06c0.31-14.59-0.02-29.41 0.05-44.03 0.03-4.85 0.29-42.22-0.16-43.73-9.47-0.24-19.24-0.02-28.74-0.02h-57.19l-26.83-0.03c-1.74 0.04-1.28 0.23-1.46 0.41h113.31 0.51v5.87z"/>
   <path class="fil39" d="m87.38 35.51l-0.83 1.35c-1.47 3.54-4.48 6.69-5 11.56-0.65-0.39-1.51-1.84-2.27-2.55-0.91-0.83-1.34-1.64-3.02-2.13l-1.64 1.75c2.06 2.03 3.93 3.92 5.61 7.12l4.03-0.01c2.09-4.8 4.72-8.27 8.17-11.94 0.53-0.64 0.82-0.98 1.5-1.4 2.28-2.02 3.87-2.72 6.59-3.53l1.21-0.55c-1.67-0.63-3.67-1.54-5.37-2.28-1.65-0.71-4.17-2.04-5.8-2.33-0.25 0.68-2.66 4.41-3.18 4.94z"/>
   <path class="fil40" d="m70.52 68.87l21.94 0.06-0.08 22.73-21.9-0.08 0.04-22.71zm-0.91-0.77c-0.32 1.03-0.29 23.81-0.04 24.22 0.56 0.9 4.57 0.37 5.76 0.37 2.78 0 17.35 0.31 17.9-0.22 0.59-0.57 0.35-23.33 0.1-24.42-1.6-0.49-22.75-0.39-23.72 0.05z"/>
   <path class="fil41" d="m93.93 39.26c-0.68 0.42-0.97 0.76-1.5 1.4 0.42 0.45 0.18-0.56 0.36 0.99l-0.05 17.61-21.79-0.01 0.1-22.6c2.32-0.03 14.41-0.4 15.5 0.21l0.83-1.35-17.33 0.03c-0.39 1.25-0.42 22.97-0.08 24.71 0.8 0.14 19.29 0.38 22.48 0.15 0.38-0.03 0.35-0.01 0.71-0.11 0.54-0.16 0.27-0.04 0.59-0.3l0.18-20.73z"/>
   <path class="fil42" d="m64.54 139.25c0.81 0.27 0.24-0.05 0.49 0.46h-1.47c-0.99 0.86-0.46 0.64-1.91 1.62-2.18 1.47-3.26 2.31-5.96 3.27l1.19 0.91c-0.49 1.57-1.54 2.14-1.93 3.98 3.46 0.56 11.79 0.1 15.78 0.1h16.09c4.22 0 30.27-0.4 31.83 0.25l-0.01-1.27h-60.91c0-0.7 0.25-0.64 0.62-1.43-0.92-0.51-0.94-0.45-1.32-1.29 4.7-1.62 8.32-5.51 11.87-8.02l-2.9-0.2c-0.53 0.64-0.98 1.06-1.46 1.62z"/>
   <path class="fil43" d="m149.12 141.81c-0.57-0.72 0.26-0.06-0.57-0.35-0.32-0.11-0.35-0.1-0.7-0.12-0.24-0.02-0.99 0.02-1.29 0.02h-5.37c-1.99-0.02-1.74-0.09-2.19 0.37l0.02 8.51c1.43-0.16 3.83-1.64 4.99-1.66 0.97-0.02 3.82 1.46 5.2 1.74l-0.09-8.51z"/>
   <path class="fil44" d="m53.9 150.83l64.75-0.04v-0.95c-1.56-0.65-27.61-0.25-31.83-0.25h-16.09c-3.99 0-12.32 0.46-15.78-0.1-0.33 0.19-0.23 0.05-0.61 0.55-0.16 0.21-0.28 0.48-0.44 0.79z"/>
   <path class="fil45" d="m145.54 35.74l-0.07 1.06c1.67-0.16 0.63 0.53 2.08-0.23-1.72 0.12-0.62 0.08-1.01-0.27 0.73-2.84 1.92-5.82 4.87-6.14l2.09 2.5c1.13-0.25 5.03-1.31 5.83-1.8 1.57 1.13 2.79 3.05 3.65 5.19-0.36 0.28 0.15 0.25-0.89 0.27 0.66 0.38 1.06 0.18 1.85 0.24-0.36-3.12-0.85-5.49-2.68-7.29-1.06-1.03-4.66-3.42-6.27-3.92-1.31-0.49-2.87 0.48-3.43 1.15-0.61 0.73-0.16 0.81-1.14 1.42-2.32 1.45-4.63 2.94-4.88 7.82z"/>
   <path class="fil46" d="m128.94 156.75c-5.63-1.02-4.63-5.38-4.63-10.99 0-1.78-0.23-5.99 0.32-7.39 0.6-1.55 2.51-3.31 4.54-3.04v-0.36c-1.4-0.39-3.07-0.1-4.35 0.11-4.81 0.8-3.54 5.24-3.54 10.68 0 6.56-1.58 10.63 5.09 11.47 1 0.12 1.91 0.11 2.57-0.48z"/>
   <path class="fil47" d="m10.01 155.03l-0.74-0.41c-4.01-1.86-3.43-3.55-3.43-8.09 0-3.19-0.72-9.17 1.04-11.25 2.17-2.56 6.52-1.87 10.49-1.87h12.25c0.3 0.35 0.78-0.5 0.09 0.53l0.71-0.61c-3.76-0.44-9.81-0.08-13.82-0.08-15.59 0-13.36-0.59-13.36 14.3 0 4.03-0.99 7.66 6.77 7.48z"/>
   <path class="fil48" d="m200.87 77.46c-0.19 0.87-0.38 0.6 2.63 0.55 1.02-0.02 2.04-0.02 3.06 0.02l-0.25 0.31c-0.15 1-3.69 4.9-1.58 10.82 0.43 1.24 1.23 2.21 1.54 3.25 0.48 0.4-0.01-0.35 0.45 0.48l2.49-0.01c-1.03-2.56-2.4-3.21-2.53-7.07-0.09-2.86 0.99-5.85 2.59-7.46 0.17-0.53 1.01-0.59 1.66-0.94 0.69-0.36 1.01-0.77 1.54-1.13-0.29-0.61 0.31-0.54-2.59-0.49l-8.68 0.05-0.33 1.62z"/>
   <path class="fil49" d="m145.54 106.22c3.11 0 8.24-0.24 10.37-0.1 3.58 0.24 7.35-0.12 10.98 0.16l-0.1-2.25c-2.55-0.55-5.84 1.04-8.39 0.64l-0.19-3.19-3.3 0.11c-0.75 0.59-1.26 0.42-2.23 0.54l-0.11 2.46-7.03-0.62v2.25z"/>
   <path class="fil50" d="m163.62 42.9c-0.97 0.84-0.24-0.25-0.85 0.93l-1.38 3.72c-2.66 6.73-2.21 1.46-2.39 7.85-0.91 0.61-3.77 2.56-4.98 1.52-1.11-0.14-2.75-1.01-3.64-1.47v-3.39c-0.15-0.99 0.24-0.42-0.37-0.76 0.3 1.01 0.33 1.94 0.14 3.12-1.23 0.53 0.18-0.12-0.81 0.11l-1.12 0.47 1.07-0.06 0.37 1.52c0.28 0.69 0.07 0.25 0.3 0.56l0.06-0.8c0.45 1.59 2.07 3.4 3.43 3.97 0.45-0.59 0.33-1.17 1.23-2.74 0.83 0.94 0.71 1.56 1.33 2.63 1.75-0.05 3.1-2.54 3.87-4.14l0.08 0.92c0.42-0.49 0.52-1.51 0.63-2.28l1.29 0.09-1-0.4c-0.64-0.23-0.66 0.12-0.81-0.36-0.01-1.73 0.08-1.07 0.8-2.02 0.65-0.86 2.11-4.86 2.48-5.93 0.36-1.02 0.27-1.28 0.96-1.88 2.03-1.78 2.66-4.17 0.8-5.14 0.18 1.88-0.47 3.03-1.49 3.96z"/>
   <path class="fil51" d="m47.47 26.58l-0.04-3.29-13.47-0.04c-0.98 0.03-1.27 0.12-1.78 0.55 0.66 0.68 0.58 0.47 1.77 0.48l13.38-0.03v2.21h-9.03c-2.48 0-6.45 0.62-8.06-0.98-1.61-1.59-1.04-5.24-1.04-7.8 0-1.13-0.12-3.4 0.19-4.33 0.35-1.07 1.03-1.43 1.68-1.93l0.49-0.4c-4.55-0.01-4.12 1.93-4.12 5.89 0 2.39-0.59 7.81 0.93 8.91 1.75 1.25 15.96 1.03 19.1 0.76z"/>
   <path class="fil52" d="m149.96 57.02c-0.13 1.13 0.24 1.33 0.36 2.45 1.09 0.98 3.31 6.32 4.38 7.37 1.78-2.25 3.46-5.82 5.14-8.36l0.12-1.62-0.08-0.92c-0.77 1.6-2.12 4.09-3.87 4.14-0.62-1.07-0.5-1.69-1.33-2.63-0.9 1.57-0.78 2.15-1.23 2.74-1.36-0.57-2.98-2.38-3.43-3.97l-0.06 0.8z"/>
   <path class="fil53" d="m209.27 78.35c-1.6 1.61-2.68 4.6-2.59 7.46 0.13 3.86 1.5 4.51 2.53 7.07l2.71-0.01c-1.26-2.33-2.57-3.82-2.61-7.32-0.04-3.73 1.36-5.11 2.53-7.48-0.43-0.01-1.08-0.07-1.49-0.05-0.81 0.04-1.31-0.36-1.08 0.33z"/>
   <path class="fil54" d="m147.58 37.1l0.59 0.31c0.02 0 0.09 0.02 0.11 0.02 0.55 0.08 3-0.62 4.08-0.34 3.4 0.91-1.17 7.6-4.67 4.72-1.35-1.1-1.31-3.52-0.11-4.71zm14.3-0.29c1.95 1 1.51 5.04-1.31 5.33-2.77 0.29-4.75-1.68-4.21-4.52 1.06-0.93 1.07-0.84 2.72-0.68 1.4 0.14 1.86 0.41 2.43 0.1l0.37-0.23zm-14.33-0.24c-1.45 0.76-0.41 0.07-2.08 0.23v2.35l0.74-0.09 0.16 0.73c0.25 2.38 2.31 3.43 4.79 2.64 2.93-0.94 2.04-3.58 3.83-4.15 1.56 0.93 0.98 3.27 3.45 4.01 2.59 0.78 4.45-0.2 4.91-2.39l0.49-1.37c0.02-0.06 0.05-0.12 0.07-0.18 0.22-0.62 0.29-1.02 0.25-1.82l-0.22 0.03c-0.79-0.06-1.19 0.14-1.85-0.24-3.54-0.33-5.12 0.72-7.62 0.6-2.89-0.13-3.58-0.81-6.92-0.35z"/>
   <path class="fil55" d="m154.02 56.92c1.94 0.05 4.39-4.02 4.66-4.81-1.54 0.52-2.2 1.02-4.18 0.96-1.9-0.06-2.69-0.8-4.12-1.01v3.39c0.89 0.46 2.53 1.33 3.64 1.47z"/>
   <path class="fil56" d="m97.79 9.19l7.92 0.07c-0.47-0.41-1.18-0.53-1.78-0.55-0.52-0.01-1.25 0.04-1.8 0.04h-3.42c-1.02-2.63 0.08-4.83 0.56-7.08-0.65-0.09-1.51-0.04-2.11-0.36l0.53-0.95c-0.94 0.61-1.01 0.73-1.58 1.86-0.46 0.9-0.63 1.58-0.57 2.68 0.11 2.06 1.36 3.29 2.25 4.29z"/>
   <path class="fil57" d="m70.8 69.13h21.44l0.02 22.28h-21.4l-0.06-22.28zm-0.32 22.45l21.9 0.08 0.08-22.73-21.94-0.06-0.04 22.71z"/>
   <polygon class="fil58" points="201.46 111.86 213.5 111.84 214.99 110.64 201.39 110.29"/>
   <path class="fil59" d="m200.56 51.57l9.06 0.05c-0.27-0.25 0.13-0.52-1.78-0.55l-5.23 0.03c0.55-2.19 0.5-2.53-1.15-3.61 0.01 1.25-0.73 2.91-0.9 4.08z"/>
   <path class="fil60" d="m51.47 154.97l2.64 0.03c-0.05-1.13 1.08-2.15 1.61-3.41l-2.36 0.1c-0.77 0.88-1.76 2.26-1.89 3.28z"/>
   <path class="fil61" d="m48.95 158.8l2.44 0.03c0.26-0.5 0.69-1.14 0.98-1.6l-2.36 0.01c-0.6 0.47-0.7 0.73-1.06 1.56z"/>
   <path class="fil62" d="m145.99 40.25c-0.23 0.04-0.22 0.05 0.04-0.2 0.03-0.02 0.11-0.1 0.14-0.12 0.04-0.03 0.13-0.1 0.2-0.14l-0.16-0.73-0.74 0.09c-0.02 0.87 0.01 0.79 0.52 1.1z"/>
</svg>
