<?xml version="1.0" encoding="UTF-8"?>
<!DOCTYPE svg PUBLIC "-//W3C//DTD SVG 1.0//EN" "http://www.w3.org/TR/2001/REC-SVG-20010904/DTD/svg10.dtd">
<svg xmlns="http://www.w3.org/2000/svg" xml:space="preserve" width="91px" height="120px" version="1.0" style="shape-rendering:geometricPrecision; text-rendering:geometricPrecision; image-rendering:optimizeQuality; fill-rule:evenodd; clip-rule:evenodd"
viewBox="0 0 91 120.07"
 xmlns:xlink="http://www.w3.org/1999/xlink">
 <defs>
  <style type="text/css">
   <![CDATA[
    .str0 {stroke:#2B2A29;stroke-width:0.79;stroke-miterlimit:22.9256}
    .fil1 {fill:#FEFEFE}
    .fil0 {fill:#2B2A29}
   ]]>
  </style>
 </defs>
 <g>
  <metadata/>
  <g>
   <circle class="fil0 str0" cx="45.5" cy="25.52" r="25.12"/>
   <path class="fil1 str0" d="M70.62 25.41l0 0.11c0,13.87 -11.25,25.12 -25.12,25.12 -13.5,0 -24.51,-10.65 -25.1,-24.01 1.66,0.3 3.37,0.46 5.12,0.46 10.44,0 19.58,-5.58 24.62,-13.91 2.62,7.25 9.57,12.43 17.73,12.43 0.93,0 1.85,-0.07 2.75,-0.2z"/>
  </g>
  <circle class="fil0 str0" cx="45.5" cy="61.9" r="5.19"/>
  <polygon class="fil0 str0" points="45.5,61.69 51.38,87.89 57.26,114.08 45.5,114.08 33.74,114.08 39.62,87.89 "/>
  <path class="fil0 str0" d="M61.25 55.66c17.14,9.58 29.35,34.36 29.35,63.41l0 0.6 -90.2 0 0 -0.6c0,-29.05 12.21,-53.83 29.35,-63.41l6.22 21.83 9.53 33.42 9.53 -33.42 6.22 -21.83z"/>
 </g>
</svg>
