<?xml version="1.0" encoding="UTF-8"?>
<!DOCTYPE svg PUBLIC "-//W3C//DTD SVG 1.0//EN" "http://www.w3.org/TR/2001/REC-SVG-20010904/DTD/svg10.dtd">
<svg xmlns="http://www.w3.org/2000/svg" xml:space="preserve" width="116px" height="142px" version="1.0" style="shape-rendering:geometricPrecision; text-rendering:geometricPrecision; image-rendering:optimizeQuality; fill-rule:evenodd; clip-rule:evenodd"
viewBox="0 0 116 141.95"
 xmlns:xlink="http://www.w3.org/1999/xlink">
 <defs>
  <style type="text/css">
   <![CDATA[
    .str0 {stroke:#2B2A29;stroke-width:0.9;stroke-miterlimit:22.9256}
    .fil1 {fill:#FEFEFE}
    .fil0 {fill:#2B2A29}
   ]]>
  </style>
 </defs>
 <g>
  <metadata/>
  <g>
   <circle class="fil0 str0" cx="58" cy="28.92" r="28.47"/>
   <path class="fil1 str0" d="M86.47 28.8l0 0.12c0,15.72 -12.75,28.46 -28.47,28.46 -15.3,0 -27.77,-12.06 -28.44,-27.2 1.88,0.34 3.82,0.52 5.79,0.52 11.84,0 22.2,-6.32 27.9,-15.77 2.98,8.22 10.85,14.09 20.1,14.09 1.06,0 2.1,-0.07 3.12,-0.22z"/>
  </g>
  <circle class="fil0 str0" cx="58" cy="76.03" r="8.74"/>
  <polygon class="fil0 str0" points="58,69.91 64.66,99.59 71.32,129.28 58,129.28 44.68,129.28 51.34,99.59 "/>
  <path class="fil0 str0" d="M78.1 68.96c21.87,10.87 37.45,38.94 37.45,71.86l-0.01 0.69 -115.08 0 -0.01 -0.69c0,-32.92 15.58,-60.99 37.45,-71.86l7.94 24.74 12.16 37.87 12.16 -37.87 7.94 -24.74z"/>
 </g>
</svg>
