<?xml version="1.0" encoding="UTF-8"?>
<!DOCTYPE svg PUBLIC "-//W3C//DTD SVG 1.0//EN" "http://www.w3.org/TR/2001/REC-SVG-20010904/DTD/svg10.dtd">
<!-- Creator: CorelDRAW 2018 (64-Bit Evaluation Version) -->
<svg xmlns="http://www.w3.org/2000/svg" xml:space="preserve" width="50%" height="50%" version="1.0" style="shape-rendering:geometricPrecision; text-rendering:geometricPrecision; image-rendering:optimizeQuality; fill-rule:evenodd; clip-rule:evenodd"
viewBox="0 0 5878.06 4180.74"
 xmlns:xlink="http://www.w3.org/1999/xlink">
 <defs>
  <style type="text/css">
   <![CDATA[
    .str0 {stroke:#1D1D1E;stroke-width:35.28;stroke-miterlimit:10}
    .fil2 {fill:none;fill-rule:nonzero}
    .fil3 {fill:#DDECF2;fill-rule:nonzero}
    .fil0 {fill:#1D1D1E;fill-rule:nonzero}
    .fil1 {fill:#2D457F;fill-rule:nonzero}
   ]]>
  </style>
 </defs>
 <g id="Layer_x0020_1">
  <metadata id="CorelCorpID_0Corel-Layer"/>
  <polygon class="fil0" points="-0,4180.74 5878.06,4180.74 5878.06,1588.68 -0,1588.68 "/>
  <path class="fil1" d="M2003.94 2252.35l0 -1200.33c0,-188.07 5.7,-376.14 17.04,-564.2l-17.04 0c-113.61,210.19 -204.51,365.07 -306.74,531l-903.25 1222.45 0 11.08 1209.99 0zm0 1360.74l0 -979.07 -1715.57 0 0 -320.84 1647.4 -2295.54 539.7 0 0 2234.71 516.93 0 0 381.67 -516.93 0 0 979.07 -471.53 0z"/>
  <path class="fil2 str0" d="M2003.94 2252.35l0 -1200.33c0,-188.07 5.7,-376.14 17.04,-564.2l-17.04 0c-113.61,210.19 -204.51,365.07 -306.74,531l-903.25 1222.45 0 11.08 1209.99 0zm0 1360.74l0 -979.07 -1715.57 0 0 -320.84 1647.4 -2295.54 539.7 0 0 2234.71 516.93 0 0 381.67 -516.93 0 0 979.07 -471.53 0z"/>
  <path class="fil3" d="M2744.99 3495.2l105.32 0 0 -357.58c0,-18.37 2.45,-36.74 8.58,-52.66 17.14,-53.88 66.13,-107.77 133.48,-107.77 82.05,0 123.68,68.58 123.68,162.88l0 355.13 105.32 0 0 -366.16c0,-19.59 3.68,-39.19 8.58,-53.88 18.37,-52.66 66.13,-97.97 127.36,-97.97 86.95,0 128.59,68.58 128.59,182.47l0 335.54 105.32 0 0 -349.01c0,-205.73 -116.34,-257.17 -194.71,-257.17 -56.33,0 -95.52,14.7 -131.03,41.64 -24.5,18.37 -47.76,44.09 -66.13,77.15l-2.45 0c-25.72,-69.8 -86.95,-118.79 -167.77,-118.79 -97.97,0 -153.08,52.66 -186.14,108.99l-3.68 0 -4.9 -95.52 -94.3 0c3.68,48.99 4.9,99.2 4.9,160.43l0 432.28zm1272.35 -606.18c-164.1,0 -293.9,116.34 -293.9,314.72 0,187.37 123.69,304.93 284.11,304.93 143.28,0 295.13,-95.52 295.13,-314.72 0,-181.24 -115.12,-304.93 -285.34,-304.93zm-2.45 80.83c127.36,0 177.57,127.36 177.57,227.78 0,133.48 -77.15,230.22 -180.02,230.22 -105.32,0 -180.02,-97.97 -180.02,-227.77 0,-112.67 55.11,-230.23 182.47,-230.23zm423.71 525.35l106.54 0 0 -315.95c0,-18.37 2.45,-35.52 4.9,-50.21 14.7,-80.82 68.58,-138.38 144.5,-138.38 14.7,0 25.72,1.23 36.74,3.68l0 -101.64c-9.8,-2.45 -18.37,-3.68 -30.62,-3.68 -72.26,0 -137.16,50.21 -164.1,129.81l-4.9 0 -3.68 -116.34 -94.3 0c3.68,55.11 4.9,115.12 4.9,184.92l0 407.79zm864.57 -276.76c1.23,-11.02 3.68,-28.17 3.68,-50.21 0,-108.99 -51.43,-279.21 -244.92,-279.21 -172.67,0 -277.98,140.83 -277.98,319.62 0,178.79 108.99,298.8 291.46,298.8 94.29,0 159.2,-19.6 197.16,-36.74l-18.37 -77.15c-40.42,17.15 -86.95,30.62 -164.1,30.62 -107.77,0 -200.84,-60.01 -203.29,-205.74l416.36 0zm-415.14 -77.15c8.57,-74.7 56.33,-175.12 165.32,-175.12 121.24,0 150.63,106.54 149.4,175.12l-314.72 0zm584.12 367.38c45.31,0 73.48,-33.07 73.48,-77.15 0,-45.31 -29.39,-77.15 -72.25,-77.15 -42.86,0 -73.48,31.84 -73.48,77.15 0,44.09 29.39,77.15 72.25,77.15z"/>
  <path class="fil3" d="M970.12 2902.5l-4.9 89.4 -2.45 0c-25.72,-48.98 -82.05,-102.87 -184.92,-102.87 -135.93,0 -266.96,113.89 -266.96,314.72 0,164.1 105.32,289.01 252.27,289.01 91.85,0 155.53,-44.09 188.59,-99.19l2.45 0 0 66.13c0,149.4 -80.83,206.96 -191.04,206.96 -73.48,0 -134.71,-22.05 -173.89,-46.54l-26.94 82.05c47.76,31.84 126.13,48.99 197.16,48.99 74.7,0 157.98,-17.15 215.53,-71.03 57.56,-51.44 84.5,-134.71 84.5,-270.64l0 -344.11c0,-72.26 2.45,-120.02 4.9,-162.88l-94.3 0zm-17.14 340.44c0,18.37 -2.45,39.19 -8.58,57.56 -23.27,68.58 -83.27,110.22 -149.4,110.22 -116.34,0 -175.12,-96.75 -175.12,-213.08 0,-137.16 73.48,-224.1 176.34,-224.1 78.38,0 131.03,51.43 150.63,113.89 4.9,14.7 6.13,30.62 6.13,48.99l0 106.54zm536.37 -353.91c-164.1,0 -293.9,116.34 -293.9,314.72 0,187.37 123.69,304.93 284.11,304.93 143.28,0 295.13,-95.52 295.13,-314.72 0,-181.24 -115.12,-304.93 -285.34,-304.93zm-2.45 80.83c127.36,0 177.57,127.36 177.57,227.78 0,133.48 -77.15,230.22 -180.02,230.22 -105.32,0 -180.02,-97.97 -180.02,-227.77 0,-112.67 55.11,-230.23 182.47,-230.23z"/>
 </g>
</svg>
