<?xml version="1.0" encoding="UTF-8"?>
<!DOCTYPE svg PUBLIC "-//W3C//DTD SVG 1.0//EN" "http://www.w3.org/TR/2001/REC-SVG-20010904/DTD/svg10.dtd">
<svg xmlns="http://www.w3.org/2000/svg" xml:space="preserve" width="117.561mm" height="83.6148mm" version="1.0" style="shape-rendering:geometricPrecision; text-rendering:geometricPrecision; image-rendering:optimizeQuality; fill-rule:evenodd; clip-rule:evenodd"
viewBox="0 0 11835.11 8417.67"
 xmlns:xlink="http://www.w3.org/1999/xlink">
 <defs>
  <style type="text/css">
   <![CDATA[
    .str0 {stroke:#1D1D1E;stroke-width:71.03;stroke-miterlimit:10}
    .fil2 {fill:none;fill-rule:nonzero}
    .fil3 {fill:#DDECF2;fill-rule:nonzero}
    .fil1 {fill:#49AFAE;fill-rule:nonzero}
    .fil0 {fill:#1D1D1E;fill-rule:nonzero}
   ]]>
  </style>
 </defs>
 <g>
  <polygon class="fil0" points="-0,8417.67 11835.11,8417.67 11835.11,3198.72 -0,3198.72 "/>
  <path class="fil1" d="M4034.83 4534.97l0 -2416.79c0,-378.66 11.44,-757.31 34.31,-1135.97l-34.31 0c-228.75,423.19 -411.76,735.05 -617.63,1069.14l-1818.61 2461.32 0 22.31 2436.24 0zm0 2739.72l0 -1971.25 -3454.2 0 0 -645.94 3316.94 -4621.98 1086.6 0 0 4499.45 1040.8 0 0 768.47 -1040.8 0 0 1971.25 -949.35 0z"/>
  <path class="fil2 str0" d="M4034.83 4534.97l0 -2416.79c0,-378.66 11.44,-757.31 34.31,-1135.97l-34.31 0c-228.75,423.19 -411.76,735.05 -617.63,1069.14l-1818.61 2461.32 0 22.31 2436.24 0zm0 2739.72l0 -1971.25 -3454.2 0 0 -645.94 3316.94 -4621.98 1086.6 0 0 4499.45 1040.8 0 0 768.47 -1040.8 0 0 1971.25 -949.35 0z"/>
  <path class="fil3" d="M5526.85 7037.41l212.05 0 0 -719.97c0,-36.99 4.93,-73.97 17.27,-106.03 34.51,-108.48 133.14,-216.98 268.75,-216.98 165.19,0 249.02,138.08 249.02,327.94l0 715.03 212.05 0 0 -737.23c0,-39.44 7.4,-78.9 17.27,-108.48 36.99,-106.03 133.15,-197.26 256.42,-197.26 175.07,0 258.9,138.08 258.9,367.38l0 675.59 212.05 0 0 -702.71c0,-414.22 -234.23,-517.79 -392.04,-517.79 -113.42,0 -192.32,29.59 -263.82,83.83 -49.32,36.99 -96.16,88.77 -133.15,155.34l-4.93 0c-51.78,-140.54 -175.06,-239.17 -337.79,-239.17 -197.25,0 -308.21,106.03 -374.77,219.44l-7.4 0 -9.87 -192.32 -189.86 0c7.4,98.63 9.87,199.72 9.87,323.01l0 870.37zm2561.8 -1220.5c-330.4,0 -591.75,234.23 -591.75,633.67 0,377.25 249.03,613.95 572.03,613.95 288.49,0 594.23,-192.32 594.23,-633.67 0,-364.92 -231.78,-613.95 -574.5,-613.95zm-4.92 162.74c256.42,0 357.52,256.42 357.52,458.61 0,268.75 -155.34,463.53 -362.45,463.53 -212.05,0 -362.45,-197.25 -362.45,-458.6 0,-226.84 110.95,-463.54 367.38,-463.54zm853.1 1057.76l214.51 0 0 -636.14c0,-36.99 4.93,-71.51 9.87,-101.09 29.59,-162.73 138.07,-278.62 290.94,-278.62 29.59,0 51.78,2.47 73.97,7.4l0 -204.65c-19.73,-4.93 -36.99,-7.4 -61.64,-7.4 -145.48,0 -276.15,101.09 -330.4,261.36l-9.87 0 -7.4 -234.24 -189.86 0c7.4,110.96 9.87,231.78 9.87,372.32l0 821.06zm1740.75 -557.24c2.47,-22.19 7.4,-56.71 7.4,-101.08 0,-219.44 -103.55,-562.17 -493.13,-562.17 -347.65,0 -559.7,283.55 -559.7,643.54 0,359.98 219.44,601.62 586.83,601.62 189.85,0 320.53,-39.45 396.97,-73.96l-36.99 -155.34c-81.37,34.52 -175.07,61.64 -330.4,61.64 -216.98,0 -404.37,-120.82 -409.3,-414.23l838.32 0zm-835.85 -155.34c17.26,-150.4 113.42,-352.58 332.86,-352.58 244.1,0 303.27,214.51 300.81,352.58l-633.67 0zm1176.11 739.7c91.23,0 147.94,-66.57 147.94,-155.34 0,-91.23 -59.17,-155.34 -145.47,-155.34 -86.3,0 -147.94,64.11 -147.94,155.34 0,88.76 59.17,155.34 145.47,155.34z"/>
  <path class="fil3" d="M1953.3 5844.04l-9.86 179.99 -4.93 0c-51.78,-98.62 -165.2,-207.11 -372.32,-207.11 -273.69,0 -537.51,229.31 -537.51,633.67 0,330.4 212.05,581.89 507.92,581.89 184.92,0 313.14,-88.76 379.71,-199.71l4.93 0 0 133.14c0,300.81 -162.74,416.7 -384.65,416.7 -147.94,0 -271.22,-44.39 -350.12,-93.7l-54.24 165.19c96.15,64.11 253.96,98.63 396.96,98.63 150.4,0 318.07,-34.52 433.96,-143 115.88,-103.56 170.14,-271.22 170.14,-544.91l0 -692.84c0,-145.48 4.92,-241.64 9.86,-327.94l-189.86 0zm-34.51 685.46c0,36.99 -4.93,78.9 -17.27,115.88 -46.84,138.07 -167.66,221.91 -300.81,221.91 -234.23,0 -352.58,-194.79 -352.58,-429.02 0,-276.15 147.94,-451.21 355.05,-451.21 157.8,0 263.82,103.55 303.27,229.3 9.87,29.59 12.33,61.64 12.33,98.63l0 214.51zm1079.95 -712.58c-330.4,0 -591.75,234.23 -591.75,633.67 0,377.25 249.03,613.95 572.03,613.95 288.49,0 594.23,-192.32 594.23,-633.67 0,-364.92 -231.78,-613.95 -574.5,-613.95zm-4.92 162.74c256.42,0 357.52,256.42 357.52,458.61 0,268.75 -155.34,463.53 -362.45,463.53 -212.05,0 -362.45,-197.25 -362.45,-458.6 0,-226.84 110.95,-463.54 367.38,-463.54z"/>
 </g>
</svg>
