<?xml version="1.0" encoding="UTF-8" standalone="no"?>
<!-- Created with Inkscape (http://www.inkscape.org/) -->

<svg
   xmlns:dc="http://purl.org/dc/elements/1.1/"
   xmlns:cc="http://creativecommons.org/ns#"
   xmlns:rdf="http://www.w3.org/1999/02/22-rdf-syntax-ns#"
   xmlns:svg="http://www.w3.org/2000/svg"
   xmlns="http://www.w3.org/2000/svg"
   xmlns:sodipodi="http://sodipodi.sourceforge.net/DTD/sodipodi-0.dtd"
   xmlns:inkscape="http://www.inkscape.org/namespaces/inkscape"
   width="52.00322mm"
   height="117.03473mm"
   viewBox="0 0 52.00322 117.03473"
   version="1.1"
   id="svg5588"
   inkscape:version="0.92.3 (2405546, 2018-03-11)"
   sodipodi:docname="2018.07.2018_go4more_02_people.svg">
  <defs
     id="defs5582">
    <clipPath
       clipPathUnits="userSpaceOnUse"
       id="clipPath3935">
      <path
         d="m 191.737,258.703 h 25.18 v -6.92 h -25.18 z"
         id="path3933"
         inkscape:connector-curvature="0" />
    </clipPath>
    <clipPath
       clipPathUnits="userSpaceOnUse"
       id="clipPath3919">
      <path
         d="m 162.284,258.215 h 80.87 v -67.972 h -80.87 z"
         id="path3917"
         inkscape:connector-curvature="0" />
    </clipPath>
    <clipPath
       clipPathUnits="userSpaceOnUse"
       id="clipPath4245">
      <path
         d="M 128.867,424.595 H 276.278 V 281.292 H 128.867 Z"
         id="path4243"
         inkscape:connector-curvature="0" />
    </clipPath>
  </defs>
  <sodipodi:namedview
     id="base"
     pagecolor="#ffffff"
     bordercolor="#666666"
     borderopacity="1.0"
     inkscape:pageopacity="0.0"
     inkscape:pageshadow="2"
     inkscape:zoom="0.7"
     inkscape:cx="-184.69254"
     inkscape:cy="206.27908"
     inkscape:document-units="mm"
     inkscape:current-layer="layer1"
     showgrid="false"
     inkscape:window-width="1920"
     inkscape:window-height="1001"
     inkscape:window-x="-9"
     inkscape:window-y="1491"
     inkscape:window-maximized="1" />
  <metadata
     id="metadata5585">
    <rdf:RDF>
      <cc:Work
         rdf:about="">
        <dc:format>image/svg+xml</dc:format>
        <dc:type
           rdf:resource="http://purl.org/dc/dcmitype/StillImage" />
        <dc:title></dc:title>
      </cc:Work>
    </rdf:RDF>
  </metadata>
  <g
     inkscape:label="Layer 1"
     inkscape:groupmode="layer"
     id="layer1"
     transform="translate(-76.669802,-105.10439)">
    <g
       id="g3859"
       transform="matrix(0.35277777,0,0,-0.35277777,110.27725,222.13905)">
      <path
         d="m 0,0 h 14.11 c 0,0 0.434,31.187 -11.485,47.597 -6.527,8.983 -16.323,12.802 -16.323,12.802 -2.466,-9.777 6.768,-24.625 6.768,-24.625 0,0 5.972,-20.87 6.93,-35.774"
         style="fill:#6cacde;fill-opacity:1;fill-rule:nonzero;stroke:none"
         id="path3861"
         inkscape:connector-curvature="0" />
    </g>
    <g
       id="g3863"
       transform="matrix(0.35277777,0,0,-0.35277777,90.806773,222.13905)">
      <path
         d="m 0,0 h -14.11 c 0,0 -0.434,31.187 11.486,47.597 C 3.902,56.58 13.698,60.399 13.698,60.399 16.164,50.622 6.931,35.774 6.931,35.774 6.931,35.774 0.958,14.904 0,0"
         style="fill:#6cacde;fill-opacity:1;fill-rule:nonzero;stroke:none"
         id="path3865"
         inkscape:connector-curvature="0" />
    </g>
    <g
       id="g3867"
       transform="matrix(0.35277777,0,0,-0.35277777,104.71359,200.39601)">
      <path
         d="M 0,0 -11.825,0.284 -23.713,0 c -10.339,-4.158 -11.991,-12.647 -11.991,-17.868 v -43.766 h 23.879 23.877 v 43.766 C 12.052,-12.647 10.338,-4.158 0,0"
         style="fill:#6cacde;fill-opacity:1;fill-rule:nonzero;stroke:none"
         id="path3869"
         inkscape:connector-curvature="0" />
    </g>
    <path
       d="m 103.06146,202.15218 h -5.038724 v -5.37175 h 5.038724 z"
       style="fill:#fccaa2;fill-opacity:1;fill-rule:nonzero;stroke:none;stroke-width:0.35277775"
       id="path3871"
       inkscape:connector-curvature="0" />
    <g
       id="g3873"
       transform="matrix(0.35277777,0,0,-0.35277777,112.7148,184.82454)">
      <path
         d="m 0,0 c 0,-20.364 -15.54,-36.871 -34.709,-36.871 -19.17,0 -34.708,16.507 -34.708,36.871 0,20.362 -5.076,54.891 34.708,54.891 C 4.635,54.891 0,20.362 0,0"
         style="fill:#fddaba;fill-opacity:1;fill-rule:nonzero;stroke:none"
         id="path3875"
         inkscape:connector-curvature="0" />
    </g>
    <g
       id="g3877"
       transform="matrix(0.35277777,0,0,-0.35277777,90.142881,181.96719)">
      <path
         d="m 0,0 c 0.91,-5.538 -1.728,-10.581 -5.888,-11.265 -4.16,-0.683 -8.272,3.251 -9.182,8.789 -0.91,5.538 1.725,10.581 5.886,11.265 C -5.022,9.472 -0.911,5.537 0,0"
         style="fill:#fddaba;fill-opacity:1;fill-rule:nonzero;stroke:none"
         id="path3879"
         inkscape:connector-curvature="0" />
    </g>
    <g
       id="g3881"
       transform="matrix(0.35277777,0,0,-0.35277777,86.039616,181.25853)">
      <path
         d="m 0,0 c 0,0 3.58,0.685 4.153,-3.955 0.572,-4.641 -2.101,-5.08 -2.941,-2.851 -0.839,2.229 0.793,3.823 0.793,3.823 0,0 0.541,1.885 -2.005,2.983"
         style="fill:#fccaa2;fill-opacity:1;fill-rule:nonzero;stroke:none"
         id="path3883"
         inkscape:connector-curvature="0" />
    </g>
    <g
       id="g3885"
       transform="matrix(0.35277777,0,0,-0.35277777,110.94058,181.96719)">
      <path
         d="m 0,0 c -0.908,-5.538 1.728,-10.581 5.89,-11.265 4.158,-0.683 8.27,3.251 9.179,8.788 C 15.981,3.062 13.345,8.105 9.185,8.789 5.022,9.472 0.911,5.537 0,0"
         style="fill:#fddaba;fill-opacity:1;fill-rule:nonzero;stroke:none"
         id="path3887"
         inkscape:connector-curvature="0" />
    </g>
    <g
       id="g3889"
       transform="matrix(0.35277777,0,0,-0.35277777,115.04437,181.25888)">
      <path
         d="m 0,0 c 0,0 -3.581,0.686 -4.153,-3.954 -0.572,-4.641 2.101,-5.08 2.941,-2.851 0.838,2.229 -0.793,3.82 -0.793,3.82 0,0 -0.543,1.888 2.005,2.985"
         style="fill:#fccaa2;fill-opacity:1;fill-rule:nonzero;stroke:none"
         id="path3891"
         inkscape:connector-curvature="0" />
    </g>
    <g
       id="g3893"
       transform="matrix(0.35277777,0,0,-0.35277777,107.1062,182.19836)"
       style="fill:#483737;fill-opacity:1">
      <path
         d="m 0,0 c 0,-1.504 -1.219,-2.723 -2.722,-2.723 -1.504,0 -2.723,1.219 -2.723,2.723 0,1.502 1.219,2.722 2.723,2.722 C -1.219,2.722 0,1.502 0,0"
         style="fill:#483737;fill-opacity:1;fill-rule:nonzero;stroke:none"
         id="path3895"
         inkscape:connector-curvature="0" />
    </g>
    <g
       id="g3897"
       transform="matrix(0.35277777,0,0,-0.35277777,103.51503,178.85696)"
       style="fill:#483737;fill-opacity:1">
      <path
         d="M 0,0 C 0,0 3.756,8.345 13.827,0.14 13.827,0.14 6.392,3.724 0,0"
         style="fill:#483737;fill-opacity:1;fill-rule:nonzero;stroke:none"
         id="path3899"
         inkscape:connector-curvature="0" />
    </g>
    <g
       id="g3901"
       transform="matrix(0.35277777,0,0,-0.35277777,96.208859,182.19836)"
       style="fill:#483737;fill-opacity:1">
      <path
         d="m 0,0 c 0,-1.504 -1.219,-2.723 -2.722,-2.723 -1.504,0 -2.723,1.219 -2.723,2.723 0,1.502 1.219,2.722 2.723,2.722 C -1.219,2.722 0,1.502 0,0"
         style="fill:#483737;fill-opacity:1;fill-rule:nonzero;stroke:none"
         id="path3903"
         inkscape:connector-curvature="0" />
    </g>
    <g
       id="g3905"
       transform="matrix(0.35277777,0,0,-0.35277777,97.528494,178.80425)"
       style="fill:#483737;fill-opacity:1">
      <path
         d="m 0,0 c 0,0 -4.017,8.225 -13.825,-0.291 0,0 7.026,3.777 13.825,0.291"
         style="fill:#483737;fill-opacity:1;fill-rule:nonzero;stroke:none"
         id="path3907"
         inkscape:connector-curvature="0" />
    </g>
    <g
       id="g3909"
       transform="matrix(0.35277777,0,0,-0.35277777,88.371088,181.62647)"
       style="fill:#483737">
      <path
         d="m 0,0 c 0,0 4.171,9.156 2.84,26.746 0,0 14.132,-4.254 24.78,-0.956 0,0 -5.767,-5.499 -9.76,-6.048 0,0 35.026,-3.645 47.891,9.546 0,0 -4.853,-16.652 3.128,-27.684 0,0 5.274,4.435 5.274,15.426 0,10.991 1.277,19.167 -6.16,23.599 0,0 -3.993,32.981 -41.259,32.981 0,0 4.437,-2.749 6.655,-6.046 0,0 -15.086,3.296 -26.177,-4.399 0,0 2.219,1.099 7.986,-1.648 0,0 -15.971,-3.846 -19.964,-19.238 C -8.759,26.888 -5.113,9.381 -5.113,9.381 -5.113,9.381 -2.758,-0.124 0,0"
         style="fill:#483737;fill-opacity:1;fill-rule:nonzero;stroke:none"
         id="path3911"
         inkscape:connector-curvature="0" />
    </g>
    <g
       transform="matrix(0.35277777,0,0,-0.35277777,28.780573,248.74036)"
       id="g3913"
       style="fill:#483737;fill-opacity:1">
      <g
         id="g3915"
         style="fill:#483737;fill-opacity:1" />
      <g
         id="g3927"
         style="fill:#483737;fill-opacity:1">
        <g
           clip-path="url(#clipPath3919)"
           id="g3925"
           style="opacity:0.30000299;fill:#483737;fill-opacity:1">
          <g
             transform="translate(236.9111,230.873)"
             id="g3923"
             style="fill:#483737;fill-opacity:1">
            <path
               d="M 0,0 C 0,0 -2.189,17.924 -18.271,27.342 -3.664,17.767 -2.699,1.934 -2.699,1.934 L -7.6,3.282 c 0,0 3.268,-1.348 1.907,-9.106 -1.361,-7.76 -31.58,-11.469 -31.58,-11.469 2.995,1.687 6.261,7.421 6.261,7.421 -18.786,-7.084 -37.297,2.361 -37.297,2.361 0,0 0.545,-13.491 -1.905,-17.877 -2.45,-4.383 -4.182,16.75 -4.182,16.75 l -0.011,-0.01 c -0.91,-11.974 1.301,-22.6 1.301,-22.6 0,0 2.355,-9.505 5.113,-9.381 0,0 4.171,9.156 2.84,26.746 0,0 14.132,-4.254 24.78,-0.956 0,0 -5.767,-5.499 -9.76,-6.048 0,0 35.026,-3.645 47.891,9.546 0,0 -4.853,-16.652 3.128,-27.684 0,0 5.274,4.435 5.274,15.426 C 6.16,-12.607 7.437,-4.432 0,0"
               style="fill:#483737;fill-opacity:1;fill-rule:nonzero;stroke:none"
               id="path3921"
               inkscape:connector-curvature="0" />
          </g>
        </g>
      </g>
    </g>
    <g
       transform="matrix(0.35277777,0,0,-0.35277777,28.780573,248.74036)"
       id="g3929">
      <g
         id="g3931" />
      <g
         id="g3943">
        <g
           clip-path="url(#clipPath3935)"
           id="g3941"
           style="opacity:0.30000299">
          <g
             transform="translate(206.2759,258.7031)"
             id="g3939">
            <path
               d="m 0,0 c 0,0 8.85,-2.873 10.641,-6.92 0,0 -19.174,3.786 -25.18,1.828 0,0 9.217,3.623 16.645,1.697 0,0 0.422,1.307 -2.106,3.395"
               style="fill:#663700;fill-opacity:1;fill-rule:nonzero;stroke:none"
               id="path3937"
               inkscape:connector-curvature="0" />
          </g>
        </g>
      </g>
    </g>
    <g
       id="g3945"
       transform="matrix(0.35277777,0,0,-0.35277777,96.393149,188.52525)">
      <path
         d="m 0,0 c 0,0 15.853,-3.112 25.288,0.887 0,0 -2.607,-8.514 -11.952,-9.033 C 3.269,-8.705 0,0 0,0"
         style="fill:#ffffff;fill-opacity:1;fill-rule:nonzero;stroke:none"
         id="path3947"
         inkscape:connector-curvature="0" />
    </g>
    <g
       id="g3949"
       transform="matrix(0.35277777,0,0,-0.35277777,101.78352,185.3923)">
      <path
         d="m 0,0 c 0,-0.654 -1.414,-1.185 -3.158,-1.185 -1.746,0 -3.16,0.531 -3.16,1.185 0,0.655 1.414,1.185 3.16,1.185 C -1.414,1.185 0,0.655 0,0"
         style="fill:#fccaa2;fill-opacity:1;fill-rule:nonzero;stroke:none"
         id="path3951"
         inkscape:connector-curvature="0" />
    </g>
    <g
       id="g3953"
       transform="matrix(0.35277777,0,0,-0.35277777,100.54192,202.15235)">
      <path
         d="M 0,0 7.074,8.948 12.871,4.552 5.809,-7.221 Z"
         style="fill:#c6effe;fill-opacity:1;fill-rule:nonzero;stroke:none"
         id="path3955"
         inkscape:connector-curvature="0" />
    </g>
    <g
       id="g3957"
       transform="matrix(0.35277777,0,0,-0.35277777,100.54192,202.15235)">
      <path
         d="M 0,0 -7.208,8.948 -12.872,4.552 -5.809,-7.221 Z"
         style="fill:#c6effe;fill-opacity:1;fill-rule:nonzero;stroke:none"
         id="path3959"
         inkscape:connector-curvature="0" />
    </g>
    <g
       id="g3961"
       transform="matrix(0.35277777,0,0,-0.35277777,105.95001,195.63937)"
       style="fill:#483737;fill-opacity:1">
      <path
         d="m 0,0 c -1.517,-0.87 -9.996,-5.123 -11.308,-0.505 -1.311,4.618 -0.818,6.803 -0.818,6.803 l 3.031,1.595 -6.234,-0.044 -6.235,0.044 3.032,-1.595 c 0,0 0.492,-2.185 -0.82,-6.803 -1.311,-4.618 -9.791,-0.365 -11.308,0.505 -2.827,1.62 -8.775,4.083 -8.775,4.083 6.973,-10.635 24.106,-10.298 24.106,-10.298 0,0 17.132,-0.337 24.104,10.298 C 8.775,4.083 2.829,1.62 0,0"
         style="fill:#483737;fill-opacity:1;fill-rule:nonzero;stroke:none"
         id="path3963"
         inkscape:connector-curvature="0" />
    </g>
    <g
       id="g3965"
       transform="matrix(0.35277777,0,0,-0.35277777,91.54041,179.84671)">
      <path
         d="m 0,0 c -1.712,0 -3.107,-1.396 -3.107,-3.109 v -8.037 c 0,-1.712 1.395,-3.109 3.107,-3.109 h 17.63 c 1.713,0 3.108,1.397 3.108,3.109 v 8.037 C 20.738,-1.396 19.343,0 17.63,0 Z M 17.63,-15.585 H 0 c -2.447,0 -4.438,1.991 -4.438,4.439 v 8.037 c 0,2.448 1.991,4.439 4.438,4.439 h 17.63 c 2.448,0 4.439,-1.991 4.439,-4.439 v -8.037 c 0,-2.448 -1.991,-4.439 -4.439,-4.439"
         style="fill:#2d2d2d;fill-opacity:1;fill-rule:nonzero;stroke:none"
         id="path3967"
         inkscape:connector-curvature="0" />
    </g>
    <g
       id="g3969"
       transform="matrix(0.35277777,0,0,-0.35277777,103.32417,179.84671)">
      <path
         d="m 0,0 c -1.713,0 -3.107,-1.396 -3.107,-3.109 v -8.037 c 0,-1.712 1.394,-3.109 3.107,-3.109 h 17.63 c 1.713,0 3.107,1.397 3.107,3.109 v 8.037 C 20.737,-1.396 19.343,0 17.63,0 Z M 17.63,-15.585 H 0 c -2.448,0 -4.439,1.991 -4.439,4.439 v 8.037 c 0,2.448 1.991,4.439 4.439,4.439 h 17.63 c 2.447,0 4.438,-1.991 4.438,-4.439 v -8.037 c 0,-2.448 -1.991,-4.439 -4.438,-4.439"
         style="fill:#2d2d2d;fill-opacity:1;fill-rule:nonzero;stroke:none"
         id="path3971"
         inkscape:connector-curvature="0" />
    </g>
    <path
       d="m 101.99325,182.5783 h -2.902303 v -0.70414 h 2.902303 z"
       style="fill:#2d2d2d;fill-opacity:1;fill-rule:nonzero;stroke:none;stroke-width:0.35277775"
       id="path3973"
       inkscape:connector-curvature="0" />
    <g
       id="g3975"
       transform="matrix(0.35277777,0,0,-0.35277777,110.88547,181.3488)">
      <path
         d="M 0,0 8.378,5.21 7.843,4.161 0.063,-2.84 Z"
         style="fill:#2d2d2d;fill-opacity:1;fill-rule:nonzero;stroke:none"
         id="path3977"
         inkscape:connector-curvature="0" />
    </g>
    <g
       id="g3979"
       transform="matrix(0.35277777,0,0,-0.35277777,90.198512,181.3488)">
      <path
         d="M 0,0 -8.377,5.21 -7.843,4.161 -0.062,-2.84 Z"
         style="fill:#2d2d2d;fill-opacity:1;fill-rule:nonzero;stroke:none"
         id="path3981"
         inkscape:connector-curvature="0" />
    </g>
    <g
       id="g3983"
       transform="matrix(0.35277777,0,0,-0.35277777,106.93962,213.56732)">
      <path
         d="M 0,0 -6.045,-3.201 -12.091,0 V 13.157 H 0 Z"
         style="fill:#8ad1f3;fill-opacity:1;fill-rule:nonzero;stroke:none"
         id="path3985"
         inkscape:connector-curvature="0" />
    </g>
    <g
       id="g3987"
       transform="matrix(0.35277777,0,0,-0.35277777,101.0435,206.41666)">
      <path
         d="m 0,0 c 0,-0.786 -0.637,-1.423 -1.422,-1.423 -0.785,0 -1.422,0.637 -1.422,1.423 0,0.784 0.637,1.421 1.422,1.421 C -0.637,1.421 0,0.784 0,0"
         style="fill:#0495d5;fill-opacity:1;fill-rule:nonzero;stroke:none"
         id="path3989"
         inkscape:connector-curvature="0" />
    </g>
    <g
       id="g3991"
       transform="matrix(0.35277777,0,0,-0.35277777,101.0435,210.5563)">
      <path
         d="m 0,0 c 0,-0.786 -0.637,-1.423 -1.422,-1.423 -0.785,0 -1.422,0.637 -1.422,1.423 0,0.783 0.637,1.421 1.422,1.421 C -0.637,1.421 0,0.783 0,0"
         style="fill:#0495d5;fill-opacity:1;fill-rule:nonzero;stroke:none"
         id="path3993"
         inkscape:connector-curvature="0" />
    </g>
    <g
       id="g3995"
       transform="matrix(0.35277777,0,0,-0.35277777,101.0435,214.6966)">
      <path
         d="m 0,0 c 0,-0.785 -0.637,-1.422 -1.422,-1.422 -0.785,0 -1.422,0.637 -1.422,1.422 0,0.785 0.637,1.422 1.422,1.422 C -0.637,1.422 0,0.785 0,0"
         style="fill:#0495d5;fill-opacity:1;fill-rule:nonzero;stroke:none"
         id="path3997"
         inkscape:connector-curvature="0" />
    </g>
    <g
       id="g3999"
       transform="matrix(0.35277777,0,0,-0.35277777,101.0435,218.83694)">
      <path
         d="m 0,0 c 0,-0.785 -0.637,-1.422 -1.422,-1.422 -0.785,0 -1.422,0.637 -1.422,1.422 0,0.785 0.637,1.423 1.422,1.423 C -0.637,1.423 0,0.785 0,0"
         style="fill:#0495d5;fill-opacity:1;fill-rule:nonzero;stroke:none"
         id="path4001"
         inkscape:connector-curvature="0" />
    </g>
    <g
       transform="matrix(0.35277777,0,0,-0.35277777,31.208283,254.89196)"
       id="g4239"
       style="fill:#ffcc00">
      <g
         id="g4241"
         style="fill:#ffcc00" />
      <g
         id="g4253"
         style="fill:#ffcc00">
        <g
           clip-path="url(#clipPath4245)"
           id="g4251"
           style="fill:#ffcc00">
          <g
             transform="translate(258.0693,424.5947)"
             id="g4249"
             style="fill:#ffcc00">
            <path
               d="m 0,0 h -110.993 c -10.014,0 -18.209,-8.195 -18.209,-18.21 v -64.009 c 0,-10.014 8.195,-18.21 18.209,-18.21 h 13.755 l 27.939,-42.874 -11.561,42.874 H 0 c 10.014,0 18.209,8.196 18.209,18.21 V -18.21 C 18.209,-8.195 10.014,0 0,0"
               style="fill:#ffcc00;fill-opacity:1;fill-rule:nonzero;stroke:none"
               id="path4247"
               inkscape:connector-curvature="0" />
          </g>
        </g>
      </g>
    </g>
    <text
       id="text5249"
       y="125.09289"
       x="89.183319"
       style="font-style:normal;font-weight:normal;font-size:10.58333302px;line-height:1.25;font-family:sans-serif;letter-spacing:0px;word-spacing:0px;fill:#000000;fill-opacity:1;stroke:none;stroke-width:0.26458332"
       xml:space="preserve"><tspan
         style="font-style:normal;font-variant:normal;font-weight:normal;font-stretch:normal;font-family:'Clarendon Blk BT';-inkscape-font-specification:'Clarendon Blk BT';fill:#ffffff;stroke-width:0.26458332"
         y="125.09289"
         x="89.183319"
         id="tspan5247"
         sodipodi:role="line">Halo</tspan></text>
  </g>
</svg>
