<?xml version="1.0" encoding="UTF-8" standalone="no"?>
<!-- Created with Inkscape (http://www.inkscape.org/) -->

<svg
   xmlns:dc="http://purl.org/dc/elements/1.1/"
   xmlns:cc="http://creativecommons.org/ns#"
   xmlns:rdf="http://www.w3.org/1999/02/22-rdf-syntax-ns#"
   xmlns:svg="http://www.w3.org/2000/svg"
   xmlns="http://www.w3.org/2000/svg"
   xmlns:sodipodi="http://sodipodi.sourceforge.net/DTD/sodipodi-0.dtd"
   xmlns:inkscape="http://www.inkscape.org/namespaces/inkscape"
   width="38.539639mm"
   height="100.81686mm"
   viewBox="0 0 38.539639 100.81686"
   version="1.1"
   id="svg1320"
   inkscape:version="0.92.3 (2405546, 2018-03-11)"
   sodipodi:docname="2018.07.2018_go4more_04_people.svg">
  <defs
     id="defs1314">
    <clipPath
       clipPathUnits="userSpaceOnUse"
       id="clipPath590">
      <path
         d="M 0,500 H 500 V 0 H 0 Z"
         id="path588"
         inkscape:connector-curvature="0" />
    </clipPath>
    <clipPath
       clipPathUnits="userSpaceOnUse"
       id="clipPath598">
      <path
         d="M 353.024,409.735 H 461.556 V 304.229 H 353.024 Z"
         id="path596"
         inkscape:connector-curvature="0" />
    </clipPath>
    <clipPath
       clipPathUnits="userSpaceOnUse"
       id="clipPath138">
      <path
         d="m 409.834,165.488 h 15.422 v -28.546 h -15.422 z"
         id="path136"
         inkscape:connector-curvature="0" />
    </clipPath>
    <clipPath
       clipPathUnits="userSpaceOnUse"
       id="clipPath106">
      <path
         d="m 405.863,294.05 h 25.182 v -5.585 h -25.182 z"
         id="path104"
         inkscape:connector-curvature="0" />
    </clipPath>
    <clipPath
       clipPathUnits="userSpaceOnUse"
       id="clipPath90">
      <path
         d="m 376.412,293.655 h 80.869 v -54.862 h -80.869 z"
         id="path88"
         inkscape:connector-curvature="0" />
    </clipPath>
  </defs>
  <sodipodi:namedview
     id="base"
     pagecolor="#ffffff"
     bordercolor="#666666"
     borderopacity="1.0"
     inkscape:pageopacity="0.0"
     inkscape:pageshadow="2"
     inkscape:zoom="0.7"
     inkscape:cx="123.16491"
     inkscape:cy="33.037725"
     inkscape:document-units="mm"
     inkscape:current-layer="g584"
     showgrid="false"
     inkscape:window-width="1920"
     inkscape:window-height="1001"
     inkscape:window-x="-9"
     inkscape:window-y="1491"
     inkscape:window-maximized="1" />
  <metadata
     id="metadata1317">
    <rdf:RDF>
      <cc:Work
         rdf:about="">
        <dc:format>image/svg+xml</dc:format>
        <dc:type
           rdf:resource="http://purl.org/dc/dcmitype/StillImage" />
        <dc:title></dc:title>
      </cc:Work>
    </rdf:RDF>
  </metadata>
  <g
     inkscape:label="Layer 1"
     inkscape:groupmode="layer"
     id="layer1"
     transform="translate(-89.587323,-101.44871)">
    <g
       id="g30"
       transform="matrix(0.35277777,0,0,-0.35277777,122.08342,202.26551)">
      <path
         d="m 0,0 h 14.11 c 0,0 0.435,31.186 -11.485,47.597 -6.525,8.984 -16.323,12.802 -16.323,12.802 -2.465,-9.777 6.768,-24.625 6.768,-24.625 0,0 5.973,-20.869 6.93,-35.774"
         style="fill:#414042;fill-opacity:1;fill-rule:nonzero;stroke:none"
         id="path32"
         inkscape:connector-curvature="0" />
    </g>
    <g
       id="g34"
       transform="matrix(0.35277777,0,0,-0.35277777,102.61347,202.26551)">
      <path
         d="m 0,0 h -14.11 c 0,0 -0.435,31.187 11.485,47.597 6.526,8.984 16.322,12.802 16.322,12.802 C 16.163,50.622 6.93,35.774 6.93,35.774 6.93,35.774 0.957,14.905 0,0"
         style="fill:#414042;fill-opacity:1;fill-rule:nonzero;stroke:none"
         id="path36"
         inkscape:connector-curvature="0" />
    </g>
    <g
       id="g38"
       transform="matrix(0.35277777,0,0,-0.35277777,116.52029,180.52247)">
      <path
         d="M 0,0 -11.825,0.285 -23.713,0 c -10.339,-4.157 -11.99,-12.646 -11.99,-17.867 v -43.767 h 23.878 23.878 v 43.767 C 12.053,-12.646 10.338,-4.157 0,0"
         style="fill:#414042;fill-opacity:1;fill-rule:nonzero;stroke:none"
         id="path40"
         inkscape:connector-curvature="0" />
    </g>
    <path
       d="m 114.86819,182.27857 h -5.03872 v -5.37175 h 5.03872 z"
       style="fill:#fccaa2;fill-opacity:1;fill-rule:nonzero;stroke:none;stroke-width:0.35277775"
       id="path42"
       inkscape:connector-curvature="0" />
    <g
       id="g44"
       transform="matrix(0.35277777,0,0,-0.35277777,124.52189,164.95065)">
      <path
         d="m 0,0 c 0,-20.365 -15.541,-36.872 -34.709,-36.872 -19.17,0 -34.709,16.507 -34.709,36.872 0,20.362 -5.076,54.891 34.709,54.891 C 4.634,54.891 0,20.362 0,0"
         style="fill:#fddaba;fill-opacity:1;fill-rule:nonzero;stroke:none"
         id="path46"
         inkscape:connector-curvature="0" />
    </g>
    <g
       id="g48"
       transform="matrix(0.35277777,0,0,-0.35277777,101.94961,162.09365)">
      <path
         d="m 0,0 c 0.91,-5.538 -1.728,-10.581 -5.888,-11.265 -4.16,-0.682 -8.271,3.252 -9.181,8.79 -0.91,5.538 1.725,10.581 5.885,11.265 C -5.022,9.472 -0.91,5.538 0,0"
         style="fill:#fddaba;fill-opacity:1;fill-rule:nonzero;stroke:none"
         id="path50"
         inkscape:connector-curvature="0" />
    </g>
    <g
       id="g52"
       transform="matrix(0.35277777,0,0,-0.35277777,97.846487,161.38463)">
      <path
         d="m 0,0 c 0,0 3.58,0.684 4.152,-3.956 0.573,-4.64 -2.1,-5.08 -2.94,-2.85 -0.839,2.228 0.793,3.823 0.793,3.823 0,0 0.541,1.885 -2.005,2.983"
         style="fill:#fccaa2;fill-opacity:1;fill-rule:nonzero;stroke:none"
         id="path54"
         inkscape:connector-curvature="0" />
    </g>
    <g
       id="g56"
       transform="matrix(0.35277777,0,0,-0.35277777,122.74766,162.09365)">
      <path
         d="m 0,0 c -0.908,-5.538 1.728,-10.581 5.889,-11.265 4.16,-0.682 8.269,3.252 9.179,8.789 C 15.98,3.063 13.345,8.106 9.184,8.79 5.021,9.472 0.911,5.538 0,0"
         style="fill:#fddaba;fill-opacity:1;fill-rule:nonzero;stroke:none"
         id="path58"
         inkscape:connector-curvature="0" />
    </g>
    <g
       id="g60"
       transform="matrix(0.35277777,0,0,-0.35277777,126.85145,161.38499)">
      <path
         d="m 0,0 c 0,0 -3.581,0.685 -4.154,-3.955 -0.573,-4.64 2.102,-5.08 2.941,-2.85 0.839,2.228 -0.792,3.82 -0.792,3.82 0,0 -0.543,1.888 2.005,2.985"
         style="fill:#fccaa2;fill-opacity:1;fill-rule:nonzero;stroke:none"
         id="path62"
         inkscape:connector-curvature="0" />
    </g>
    <g
       id="g64"
       transform="matrix(0.35277777,0,0,-0.35277777,118.91325,162.32447)">
      <path
         d="m 0,0 c 0,-1.504 -1.22,-2.724 -2.723,-2.724 -1.504,0 -2.722,1.22 -2.722,2.724 0,1.501 1.218,2.722 2.722,2.722 C -1.22,2.722 0,1.501 0,0"
         style="fill:#2d2d2d;fill-opacity:1;fill-rule:nonzero;stroke:none"
         id="path66"
         inkscape:connector-curvature="0" />
    </g>
    <g
       id="g68"
       transform="matrix(0.35277777,0,0,-0.35277777,115.32141,158.98306)">
      <path
         d="M 0,0 C 0,0 3.757,8.345 13.828,0.14 13.828,0.14 6.393,3.724 0,0"
         style="fill:#2d2d2d;fill-opacity:1;fill-rule:nonzero;stroke:none"
         id="path70"
         inkscape:connector-curvature="0" />
    </g>
    <g
       id="g72"
       transform="matrix(0.35277777,0,0,-0.35277777,108.01573,162.32447)">
      <path
         d="m 0,0 c 0,-1.504 -1.219,-2.724 -2.722,-2.724 -1.505,0 -2.722,1.22 -2.722,2.724 0,1.501 1.217,2.722 2.722,2.722 C -1.219,2.722 0,1.501 0,0"
         style="fill:#2d2d2d;fill-opacity:1;fill-rule:nonzero;stroke:none"
         id="path74"
         inkscape:connector-curvature="0" />
    </g>
    <g
       id="g76"
       transform="matrix(0.35277777,0,0,-0.35277777,109.33519,158.93071)">
      <path
         d="m 0,0 c 0,0 -4.016,8.226 -13.824,-0.29 0,0 7.025,3.777 13.824,0.29"
         style="fill:#2d2d2d;fill-opacity:1;fill-rule:nonzero;stroke:none"
         id="path78"
         inkscape:connector-curvature="0" />
    </g>
    <g
       id="g80"
       transform="matrix(0.35277777,0,0,-0.35277777,100.17779,161.75293)">
      <path
         d="m 0,0 c 0,0 4.173,7.391 2.841,21.588 0,0 14.132,-3.435 24.779,-0.772 0,0 -5.766,-4.438 -9.76,-4.88 0,0 35.027,-2.944 47.891,7.705 0,0 -4.853,-13.441 3.129,-22.346 0,0 5.273,3.579 5.273,12.452 0,8.872 1.278,15.47 -6.159,19.047 0,0 -3.993,26.619 -41.26,26.619 0,0 4.437,-2.219 6.656,-4.88 0,0 -15.086,2.66 -26.176,-3.55 0,0 2.218,0.887 7.985,-1.331 0,0 -15.971,-3.103 -19.964,-15.527 C -8.759,21.703 -5.112,7.573 -5.112,7.573 -5.112,7.573 -2.757,-0.101 0,0"
         style="fill:#414042;fill-opacity:1;fill-rule:nonzero;stroke:none"
         id="path82"
         inkscape:connector-curvature="0" />
    </g>
    <g
       transform="matrix(0.35277777,0,0,-0.35277777,-34.951943,245.99411)"
       id="g84">
      <g
         id="g86" />
      <g
         id="g98">
        <g
           clip-path="url(#clipPath90)"
           id="g96"
           style="opacity:0.30000299">
          <g
             transform="translate(451.0391,271.5879)"
             id="g94">
            <path
               d="M 0,0 C 0,0 -2.188,14.466 -18.271,22.067 -3.665,14.34 -2.699,1.561 -2.699,1.561 l -4.902,1.088 c 0,0 3.268,-1.088 1.908,-7.351 -1.362,-6.263 -31.581,-9.256 -31.581,-9.256 2.995,1.361 6.261,5.989 6.261,5.989 -18.785,-5.718 -37.296,1.906 -37.296,1.906 0,0 0.544,-10.889 -1.906,-14.428 -2.45,-3.539 -4.182,13.518 -4.182,13.518 l -0.01,-0.008 c -0.91,-9.665 1.301,-18.24 1.301,-18.24 0,0 2.355,-7.674 5.112,-7.573 0,0 4.173,7.391 2.841,21.588 0,0 14.132,-3.435 24.779,-0.772 0,0 -5.767,-4.438 -9.76,-4.88 0,0 35.027,-2.944 47.891,7.705 0,0 -4.853,-13.441 3.129,-22.346 0,0 5.273,3.579 5.273,12.452 C 6.159,-10.175 7.437,-3.577 0,0"
               style="fill:#414042;fill-opacity:1;fill-rule:nonzero;stroke:none"
               id="path92"
               inkscape:connector-curvature="0" />
          </g>
        </g>
      </g>
    </g>
    <g
       transform="matrix(0.35277777,0,0,-0.35277777,-34.951943,245.99411)"
       id="g100">
      <g
         id="g102" />
      <g
         id="g114">
        <g
           clip-path="url(#clipPath106)"
           id="g112"
           style="opacity:0.30000299">
          <g
             transform="translate(420.4033,294.0498)"
             id="g110">
            <path
               d="m 0,0 c 0,0 8.85,-2.318 10.642,-5.585 0,0 -19.174,3.056 -25.182,1.475 0,0 9.218,2.924 16.646,1.37 0,0 0.421,1.053 -2.106,2.74"
               style="fill:#414042;fill-opacity:1;fill-rule:nonzero;stroke:none"
               id="path108"
               inkscape:connector-curvature="0" />
          </g>
        </g>
      </g>
    </g>
    <g
       id="g116"
       transform="matrix(0.35277777,0,0,-0.35277777,108.20006,168.65171)">
      <path
         d="m 0,0 c 0,0 15.853,-3.112 25.288,0.888 0,0 -2.607,-8.515 -11.951,-9.034 C 3.269,-8.705 0,0 0,0"
         style="fill:#ffffff;fill-opacity:1;fill-rule:nonzero;stroke:none"
         id="path118"
         inkscape:connector-curvature="0" />
    </g>
    <g
       id="g120"
       transform="matrix(0.35277777,0,0,-0.35277777,113.59058,165.51877)">
      <path
         d="m 0,0 c 0,-0.653 -1.414,-1.184 -3.159,-1.184 -1.746,0 -3.16,0.531 -3.16,1.184 0,0.655 1.414,1.185 3.16,1.185 C -1.414,1.185 0,0.655 0,0"
         style="fill:#fccaa2;fill-opacity:1;fill-rule:nonzero;stroke:none"
         id="path122"
         inkscape:connector-curvature="0" />
    </g>
    <g
       id="g124"
       transform="matrix(0.35277777,0,0,-0.35277777,112.34862,182.27846)">
      <path
         d="M 0,0 -4.679,-5.546 -3.444,-9.09 H 0 3.444 l 1.235,3.544 z"
         style="fill:#008b98;fill-opacity:1;fill-rule:nonzero;stroke:none"
         id="path126"
         inkscape:connector-curvature="0" />
    </g>
    <g
       id="g128"
       transform="matrix(0.35277777,0,0,-0.35277777,113.27879,185.48514)">
      <path
         d="m 0,0 h -2.637 -2.637 l -5.074,-25.175 7.711,-9.404 7.711,9.404 z"
         style="fill:#089fae;fill-opacity:1;fill-rule:nonzero;stroke:none"
         id="path130"
         inkscape:connector-curvature="0" />
    </g>
    <g
       transform="matrix(0.35277777,0,0,-0.35277777,-34.951943,245.99411)"
       id="g132">
      <g
         id="g134" />
      <g
         id="g146">
        <g
           clip-path="url(#clipPath138)"
           id="g144"
           style="opacity:0.39999402">
          <g
             transform="translate(411.2021,153.1416)"
             id="g142">
            <path
               d="m 0,0 c 0,0 1.021,-10.729 4.793,-10.729 3.772,0 7.035,5.304 5.403,23.076 l 3.858,-19.142 -7.711,-9.404 -7.711,9.404 z"
               style="fill:#089fae;fill-opacity:1;fill-rule:nonzero;stroke:none"
               id="path140"
               inkscape:connector-curvature="0" />
          </g>
        </g>
      </g>
    </g>
    <g
       id="g148"
       transform="matrix(0.35277777,0,0,-0.35277777,112.34862,182.27846)">
      <path
         d="M 0,0 7.074,8.947 12.872,4.552 5.809,-7.221 Z"
         style="fill:#ffffff;fill-opacity:1;fill-rule:nonzero;stroke:none"
         id="path150"
         inkscape:connector-curvature="0" />
    </g>
    <g
       id="g152"
       transform="matrix(0.35277777,0,0,-0.35277777,112.34862,182.27846)">
      <path
         d="M 0,0 -7.208,8.947 -12.871,4.552 -5.809,-7.221 Z"
         style="fill:#ffffff;fill-opacity:1;fill-rule:nonzero;stroke:none"
         id="path154"
         inkscape:connector-curvature="0" />
    </g>
    <g
       transform="matrix(0.35277777,0,0,-0.35277777,-34.951943,245.99411)"
       id="g584">
      <g
         id="g586"
         clip-path="url(#clipPath590)"
         style="fill:#d44f6b;fill-opacity:1;stroke:#000000;stroke-width:0;stroke-miterlimit:4;stroke-dasharray:none;stroke-opacity:1">
        <g
           id="g592"
           style="fill:#d44f6b;fill-opacity:1;stroke:#000000;stroke-width:0;stroke-miterlimit:4;stroke-dasharray:none;stroke-opacity:1">
          <g
             id="g594"
             style="fill:#d44f6b;fill-opacity:1;stroke:#000000;stroke-width:0;stroke-miterlimit:4;stroke-dasharray:none;stroke-opacity:1" />
          <g
             id="g606"
             style="fill:#d44f6b;fill-opacity:1;stroke:#000000;stroke-width:0;stroke-miterlimit:4;stroke-dasharray:none;stroke-opacity:1">
            <g
               clip-path="url(#clipPath598)"
               id="g604"
               style="fill:#d44f6b;fill-opacity:1;stroke:#000000;stroke-width:0;stroke-miterlimit:4;stroke-dasharray:none;stroke-opacity:1">
              <g
                 transform="translate(366.4307,409.7354)"
                 id="g602"
                 style="fill:#d44f6b;fill-opacity:1;stroke:#000000;stroke-width:0;stroke-miterlimit:4;stroke-dasharray:none;stroke-opacity:1">
                <path
                   d="m 0,0 h 81.718 c 7.373,0 13.407,-6.034 13.407,-13.407 v -47.126 c 0,-7.374 -6.034,-13.407 -13.407,-13.407 H 71.592 l -20.571,-31.566 8.512,31.566 H 0 c -7.373,0 -13.406,6.033 -13.406,13.407 v 47.126 C -13.406,-6.034 -7.373,0 0,0"
                   style="fill:#d44f6b;fill-opacity:1;fill-rule:nonzero;stroke:#000000;stroke-width:0;stroke-miterlimit:4;stroke-dasharray:none;stroke-opacity:1"
                   id="path600"
                   inkscape:connector-curvature="0" />
              </g>
            </g>
          </g>
        </g>
      </g>
    </g>
    <text
       xml:space="preserve"
       style="font-style:normal;font-weight:normal;font-size:10.58333302px;line-height:1.25;font-family:sans-serif;letter-spacing:0px;word-spacing:0px;fill:#000000;fill-opacity:1;stroke:none;stroke-width:0.26458332"
       x="98.355179"
       y="116.86034"
       id="text1478"><tspan
         sodipodi:role="line"
         id="tspan1476"
         x="98.355179"
         y="116.86034"
         style="fill:#ffffff;stroke-width:0.26458332">مرحبا</tspan></text>
  </g>
</svg>
