<?xml version="1.0" standalone="no"?>
<!DOCTYPE svg PUBLIC "-//W3C//DTD SVG 20010904//EN"
 "http://www.w3.org/TR/2001/REC-SVG-20010904/DTD/svg10.dtd">
<svg version="1.0" xmlns="http://www.w3.org/2000/svg"
 width="834.000000pt" height="834.000000pt" viewBox="0 0 834.000000 834.000000"
 preserveAspectRatio="xMidYMid meet">
<metadata>
Created by potrace 1.11, written by Peter Selinger 2001-2013
</metadata>
<g transform="translate(0.000000,834.000000) scale(0.100000,-0.100000)"
fill="#000000" stroke="none">
<path d="M2669 7040 c-35 -50 -70 -98 -77 -108 -14 -19 -249 -345 -272 -379
-33 -46 -135 -189 -143 -198 -9 -11 -62 -86 -122 -171 -22 -31 -45 -62 -50
-68 -6 -6 -28 -38 -50 -71 -22 -33 -43 -62 -46 -65 -3 -3 -28 -36 -54 -74 -27
-39 -54 -77 -61 -85 -7 -9 -72 -99 -145 -201 -72 -102 -139 -195 -148 -206 -9
-12 -22 -30 -29 -40 -54 -80 -243 -342 -256 -356 -9 -10 -16 -20 -16 -23 0 -3
-5 -11 -10 -18 -6 -7 -36 -48 -67 -92 -32 -44 -60 -82 -63 -85 -3 -3 -14 -18
-24 -35 -11 -16 -23 -34 -28 -40 -5 -5 -99 -136 -209 -290 -110 -154 -205
-287 -212 -295 -7 -9 -28 -38 -47 -65 -18 -28 -36 -52 -39 -55 -7 -6 -36 -48
-84 -118 l-32 -47 0 -242 0 -243 180 0 c99 0 646 -1 1216 -1 l1037 0 0 -677
c0 -372 1 -687 1 -699 1 -19 4 -21 30 -13 16 4 31 6 34 4 3 -3 34 -4 132 -3
29 0 227 0 245 0 8 0 62 0 120 0 58 0 117 0 131 0 l26 -1 1 677 c0 373 1 686
1 695 1 16 28 17 344 17 188 0 352 1 365 1 l22 0 0 295 0 295 -102 0 c-57 1
-175 0 -263 0 -88 -1 -171 -1 -185 0 -14 1 -61 2 -104 3 l-79 2 0 1583 0 1582
-402 0 -401 0 -65 -90z m166 -737 c-12 -163 -17 -567 -18 -1411 l0 -933 -91 0
c-50 0 -100 0 -111 0 -30 0 -1108 -1 -1125 0 -8 0 -84 0 -168 1 l-154 1 16 24
c9 13 56 77 104 142 48 65 105 143 127 173 22 30 42 57 45 60 3 3 55 73 115
155 60 83 113 155 118 160 7 9 439 594 473 640 41 57 156 212 165 223 27 33
122 169 127 182 3 8 8 17 12 20 5 5 91 147 131 217 10 17 29 50 43 72 15 22
26 45 26 49 0 5 8 20 19 33 10 13 36 57 57 97 21 40 44 81 49 90 6 9 16 27 23
40 7 12 15 22 17 22 3 0 3 -26 0 -57z"/>
<path d="M4289 3036 c-2 -2 -23 -6 -47 -10 -24 -3 -59 -13 -79 -23 -36 -17
-123 -98 -123 -114 0 -5 -3 -9 -7 -9 -5 0 -8 26 -8 58 1 31 -2 62 -6 67 -4 6
-34 10 -66 9 l-58 -1 0 -419 0 -419 75 0 75 0 1 270 c0 175 4 284 12 311 23
81 113 152 187 148 58 -3 70 -7 103 -34 66 -56 73 -96 75 -470 l2 -225 73 -3
72 -3 0 271 c0 167 4 288 11 316 14 56 72 121 124 138 107 37 203 -24 231
-144 4 -19 9 -154 10 -300 1 -146 2 -268 3 -272 1 -3 34 -6 74 -5 l72 2 -1
295 c0 282 -1 298 -24 365 -18 55 -34 80 -76 122 -29 29 -62 53 -73 53 -11 0
-23 5 -26 11 -4 6 -38 9 -82 8 -61 -2 -87 -8 -133 -31 -53 -26 -130 -97 -130
-119 0 -18 -17 -8 -28 16 -29 64 -104 119 -179 131 -21 3 -41 8 -44 10 -3 2
-8 2 -10 0z"/>
<path d="M963 3000 c-175 -80 -269 -291 -227 -511 41 -216 220 -344 424 -305
54 11 118 47 155 87 18 21 35 35 38 33 4 -5 0 -94 -8 -163 -6 -53 -48 -132
-83 -158 -51 -38 -128 -56 -206 -49 -39 3 -78 7 -86 9 -28 5 -95 29 -104 38
-20 18 -33 7 -49 -43 -20 -62 -15 -71 52 -93 78 -26 91 -28 206 -30 74 -2 121
2 143 11 17 7 32 11 32 8 0 -2 23 7 51 22 113 57 178 159 195 305 3 30 7 233
8 452 2 323 0 397 -11 398 -7 0 -26 1 -43 1 -73 0 -77 -1 -77 -24 -1 -13 -1
-40 -2 -62 l-1 -38 -32 41 c-19 22 -57 53 -88 68 -46 23 -69 28 -140 30 -74 1
-93 -2 -147 -27z m267 -113 c50 -27 64 -41 94 -96 25 -46 26 -58 27 -173 0
-176 -6 -196 -81 -269 -81 -78 -223 -73 -307 11 -48 47 -76 125 -79 218 -1 46
2 100 8 120 23 91 81 166 152 198 44 20 143 15 186 -9z"/>
<path d="M1985 3013 c-76 -26 -109 -46 -161 -98 -41 -41 -109 -145 -103 -157
1 -2 -4 -23 -11 -48 -13 -47 -16 -163 -6 -220 9 -51 48 -149 69 -170 9 -11 17
-22 17 -25 0 -13 75 -72 123 -97 158 -83 380 -44 496 88 92 105 124 245 97
433 -14 91 -104 216 -191 262 -89 49 -241 63 -330 32z m216 -115 c150 -63 208
-335 108 -508 -40 -70 -126 -120 -204 -120 -153 0 -260 147 -250 344 7 156 77
262 193 296 38 11 111 5 153 -12z"/>
<path d="M5595 3023 c-49 -11 -148 -68 -189 -110 -82 -83 -124 -201 -121 -338
6 -216 121 -368 313 -413 94 -22 231 2 316 56 78 49 154 151 172 232 13 61 16
89 16 140 1 155 -34 246 -130 338 -45 44 -145 98 -162 87 -5 -3 -11 -1 -14 4
-6 9 -162 12 -201 4z m165 -116 c43 -11 71 -30 108 -72 23 -26 41 -50 40 -54
-1 -3 4 -19 11 -36 19 -46 23 -64 26 -139 5 -148 -62 -276 -167 -320 -42 -18
-143 -21 -153 -6 -3 6 -14 10 -24 10 -28 0 -102 79 -129 139 -22 48 -26 70
-27 151 0 52 4 111 8 130 10 45 51 114 88 149 48 47 143 67 219 48z"/>
<path d="M6595 3017 c-49 -19 -95 -50 -95 -64 0 -7 -4 -13 -10 -13 -5 0 -21
-21 -34 -47 l-25 -48 -2 40 c-1 22 -2 59 -2 83 0 31 -4 42 -16 43 -26 1 -95 1
-106 0 -7 -1 -10 -143 -9 -418 l2 -418 76 -1 76 -2 1 247 c1 280 1 287 34 351
41 81 110 123 190 115 19 -2 35 1 36 6 0 5 1 29 1 54 0 89 2 85 -44 84 -24 0
-57 -6 -73 -12z"/>
<path d="M7070 3016 c-133 -38 -236 -159 -270 -317 -18 -80 -8 -230 18 -299
60 -155 197 -243 377 -243 84 -1 167 10 225 30 57 19 58 21 46 78 -3 11 -5 26
-5 34 -1 9 -9 12 -23 8 -13 -3 -33 -8 -46 -11 -13 -3 -33 -8 -45 -12 -37 -12
-160 -11 -207 1 -127 33 -186 106 -205 252 l-3 28 296 0 297 0 2 65 c1 36 -3
83 -9 105 -5 22 -12 48 -14 58 -12 64 -75 149 -141 190 -77 47 -195 60 -293
33z m187 -111 c69 -29 108 -91 120 -190 l5 -40 -222 0 -221 0 4 30 c11 80 70
164 139 198 42 21 127 22 175 2z"/>
<path d="M7713 2358 c-46 -22 -65 -125 -31 -166 71 -84 204 -17 184 93 -13 69
-87 105 -153 73z"/>
</g>
</svg>
